<svg id="Слой_1" data-name="Слой 1" xmlns="http://www.w3.org/2000/svg" viewBox="0 0 105.97 114.73"><defs><style>.cls-1{fill:#fff;stroke:#54b797;stroke-miterlimit:10;stroke-width:5px;}.cls-2{fill:#fdb857;}.cls-3{fill:#0593a1;}.cls-4{fill:#1d1d1b;}</style></defs><title>лампочка</title><path class="cls-1" d="M94.94,23.77l-33.42-19a17.31,17.31,0,0,0-17.07,0L11,23.77A16.78,16.78,0,0,0,2.5,38.35v38A16.78,16.78,0,0,0,11,91l33.41,19a17.31,17.31,0,0,0,17.07,0L94.94,91a16.79,16.79,0,0,0,8.53-14.58v-38A16.79,16.79,0,0,0,94.94,23.77Z"/><path class="cls-2" d="M62.43,38a10.46,10.46,0,0,1-3,7.38A8.13,8.13,0,0,0,57.11,51H54.3V45.68a1.09,1.09,0,0,0-.1-.44l3.85-6.37a.25.25,0,0,0-.09-.34.2.2,0,0,0-.21,0s-.07-.05-.11-.05c-.25,0-.4-.23-.62-.62s-.5-.89-1.08-.89-.85.5-1.08.89-.37.62-.62.62-.38-.19-.62-.62-.5-.89-1.08-.89-.86.5-1.08.89-.38.62-.62.62-.41-.23-.63-.62-.5-.89-1.08-.89-.86.49-1.08.89-.37.62-.62.62c0,0-.07,0-.11.05a.2.2,0,0,0-.21,0,.25.25,0,0,0-.09.34l3.85,6.37a1.09,1.09,0,0,0-.1.44V51H48a8.21,8.21,0,0,0-2.39-5.59,10.56,10.56,0,0,1-2.8-9.08,10,10,0,0,1,8.61-8.53,9,9,0,0,1,1.16-.07A10.13,10.13,0,0,1,62.43,38Z"/><polygon class="cls-3" points="61.84 87.42 61.8 100.21 47.16 100.21 47.13 87.54 47.76 87.54 61.23 87.42 61.84 87.42"/><path class="cls-2" d="M57.41,39l-3.55,5.88a1.5,1.5,0,0,0-1-.34h-.71a1.5,1.5,0,0,0-1,.34L47.66,39a1.52,1.52,0,0,0,.85-.84c.22-.39.37-.62.62-.62s.41.23.62.62.51.89,1.09.89.86-.49,1.08-.89.38-.62.62-.62.38.2.62.62.5.89,1.08.89.86-.49,1.08-.89.38-.62.62-.62.41.23.63.62A1.48,1.48,0,0,0,57.41,39Z"/><polygon class="cls-2" points="56.13 58.9 54.48 59.6 54.41 59.6 50.66 59.6 50.59 59.6 48.94 58.9 56.13 58.9"/><path class="cls-2" d="M53.8,45.68V51H51.27V45.68a.83.83,0,0,1,.91-.69h.71A.83.83,0,0,1,53.8,45.68Z"/><path class="cls-4" d="M76,37.58a.25.25,0,0,1,.25.25.25.25,0,0,1-.25.25H64.41a.25.25,0,0,1-.25-.25.25.25,0,0,1,.25-.25Z"/><path class="cls-4" d="M72.74,25.87a.25.25,0,1,1,.25.43l-10,5.81a.27.27,0,0,1-.12,0A.26.26,0,0,1,62.6,32a.25.25,0,0,1,.09-.34Z"/><path class="cls-4" d="M73,49.35a.26.26,0,0,1,.1.34.26.26,0,0,1-.22.12.31.31,0,0,1-.13,0l-10-5.8a.25.25,0,1,1,.25-.43Z"/><path class="cls-4" d="M64.06,17.37a.25.25,0,0,1,.43.25l-5.8,10.05a.25.25,0,0,1-.22.12.27.27,0,0,1-.12,0,.25.25,0,0,1-.09-.34Z"/><path class="cls-4" d="M52.79,14.35V26a.25.25,0,0,1-.25.25.25.25,0,0,1-.25-.25V14.35a.25.25,0,0,1,.25-.25A.25.25,0,0,1,52.79,14.35Z"/><path class="cls-4" d="M46.82,27.42a.26.26,0,0,1-.1.34.27.27,0,0,1-.12,0,.25.25,0,0,1-.22-.12l-5.8-10a.25.25,0,1,1,.43-.25Z"/><path class="cls-4" d="M40.91,37.83a.25.25,0,0,1-.25.25H29.06a.25.25,0,0,1-.25-.25.25.25,0,0,1,.25-.25h11.6A.25.25,0,0,1,40.91,37.83Z"/><path class="cls-4" d="M52.18,45a.83.83,0,0,0-.91.69V51H53.8V45.68a.83.83,0,0,0-.91-.69ZM50.79,60.26c0,.53.8,1,1.75,1s1.74-.45,1.74-1a.45.45,0,0,0,0-.16H50.82A.45.45,0,0,0,50.79,60.26Zm5.34-1.36H48.94l1.65.7h3.89ZM48,87l13-.1,0-5.32h0L48,81.72Zm.5-48.92a1.52,1.52,0,0,1-.85.84l3.55,5.88a1.5,1.5,0,0,1,1-.34h.71a1.5,1.5,0,0,1,1,.34L57.41,39a1.48,1.48,0,0,1-.84-.84c-.22-.39-.37-.62-.63-.62s-.38.2-.62.62-.5.89-1.08.89-.86-.49-1.08-.89-.38-.62-.62-.62-.38.2-.62.62-.5.89-1.08.89-.86-.49-1.09-.89-.37-.62-.62-.62S48.73,37.72,48.51,38.11ZM48,51.46V58.4h9.15V51.46H48Zm-.79,48.75H61.81l0-12.79h-.61l-13.47.12h-.62Zm-2.34-39,1,6.08,4.89,4.34,4.22-1.32L57.34,67l-.24-8-2.35,1a.85.85,0,0,1,0,.23c0,.83-1,1.48-2.24,1.48s-2.25-.65-2.25-1.48a.85.85,0,0,1,0-.23l-2.71-1.14s0,0,0,0,0,0,0-.05a.3.3,0,0,1,0-.1s0,0,0-.05V54.74ZM42.77,36.29a10.56,10.56,0,0,0,2.8,9.08A8.21,8.21,0,0,1,48,51h2.81V45.68a1.09,1.09,0,0,1,.1-.44L47,38.87a.25.25,0,0,1,.09-.34.2.2,0,0,1,.21,0s.07-.05.11-.05c.25,0,.4-.23.62-.62s.5-.89,1.08-.89.86.49,1.08.89.37.62.63.62.38-.19.62-.62S52,37,52.54,37s.86.5,1.08.89.38.62.62.62.38-.19.62-.62.5-.89,1.08-.89.86.49,1.08.89.37.62.62.62c0,0,.07,0,.11.05a.2.2,0,0,1,.21,0,.25.25,0,0,1,.09.34L54.2,45.24a1.09,1.09,0,0,1,.1.44V51h2.81a8.13,8.13,0,0,1,2.35-5.55,10.46,10.46,0,0,0,3-7.38,10.13,10.13,0,0,0-9.89-10.34,9,9,0,0,0-1.16.07A10,10,0,0,0,42.77,36.29Zm1,15.63,0,.08,0,.09-3.28,8,0,.07a.66.66,0,0,0-.06.2,1.06,1.06,0,0,0,0,.19c0,.05,0,.11,0,.18a1.47,1.47,0,0,0,0,.21L40,61l.25,0,.19,2.19a.31.31,0,0,1,0,.1L40.93,73v.11l7,8.07,4.71,0,8-.07,2-11.71v0a.36.36,0,0,1,0-.1v0s0,0,0-.08a1.71,1.71,0,0,0,0-.39l.25,0-.24,0L62.5,58.5a2.42,2.42,0,0,0-2.43-2.35H60a2.43,2.43,0,0,0-2.39,2.23v.27a.3.3,0,0,1,0,.1l.26,8.36a.3.3,0,0,1-.05.16l-2.51,3.36a.27.27,0,0,1-.12.09L50.73,72.1a.24.24,0,0,1-.24,0l-5.06-4.48a.28.28,0,0,1-.08-.15l-1-6.24a.2.2,0,0,1,0-.13l3-7.46a2.17,2.17,0,0,0,.07-.24V52.3A1.93,1.93,0,0,0,46.31,51a1.89,1.89,0,0,0-.77-.17A2,2,0,0,0,43.8,51.92Zm-3.84,8,3.26-8a1.67,1.67,0,0,0-.37,0A2,2,0,0,0,41.1,53a.25.25,0,0,1-.23.14,2,2,0,0,0-2.08,1.7l-1.12,8.61v.07a.74.74,0,0,0,0,.21v.18l0,.16a1.28,1.28,0,0,0,.06.23l-.23.11.24,0,2.59,7.14L40,63.26a.21.21,0,0,1,0-.08l-.18-2.1V61a2.61,2.61,0,0,1,0-.28c0-.08,0-.15,0-.23a1.89,1.89,0,0,1,0-.23,2.41,2.41,0,0,1,.08-.25A.15.15,0,0,1,40,59.94Zm5.25-14.22a11.08,11.08,0,0,1-2.93-9.51,10.54,10.54,0,0,1,9-8.95,9.82,9.82,0,0,1,1.21-.07A10.63,10.63,0,0,1,62.93,38a11,11,0,0,1-3.11,7.73,7.66,7.66,0,0,0-2.21,5.36v5.82a2.89,2.89,0,0,1,2.32-1.29h.14A2.91,2.91,0,0,1,63,58.48l.3,10.1v.07a.39.39,0,0,1,0,.11,3.87,3.87,0,0,1,0,.48l0,.11v.06l-2.05,11.7a.24.24,0,0,1,.16.07.25.25,0,0,1,.08.18l0,5.56h.61a.21.21,0,0,1,.18.07.24.24,0,0,1,.07.18l0,13.29a.25.25,0,0,1-.25.25H46.92a.26.26,0,0,1-.25-.25l0-13.17a.25.25,0,0,1,.25-.25h.62l0-5.57s0,0,0-.06l-7-8a.25.25,0,0,1-.06-.16V73.1a2.06,2.06,0,0,1-.13-.33.21.21,0,0,1,0-.06l-3-8.18a.19.19,0,0,0,0-.07,1.57,1.57,0,0,1-.06-.28,1.15,1.15,0,0,1,0-.22,1.93,1.93,0,0,1,0-.24,1.13,1.13,0,0,1,0-.26.19.19,0,0,1,0-.08l1.11-8.62a2.47,2.47,0,0,1,2.44-2.14h0a2.48,2.48,0,0,1,2.74-1.1,2.44,2.44,0,0,1,2.06-1.16,2.57,2.57,0,0,1,1.92.92v-.21A7.71,7.71,0,0,0,45.21,45.72Z"/><path class="cls-4" d="M32.33,25.87l10.05,5.8a.25.25,0,0,1,.09.34.26.26,0,0,1-.22.13.27.27,0,0,1-.12,0L32.08,26.3a.25.25,0,1,1,.25-.43Z"/><path class="cls-4" d="M42.38,44l-10.05,5.8a.31.31,0,0,1-.13,0,.26.26,0,0,1-.22-.12.26.26,0,0,1,.1-.34l10.05-5.8a.25.25,0,0,1,.25.43Z"/></svg>