<svg id="Слой_1" data-name="Слой 1" xmlns="http://www.w3.org/2000/svg" viewBox="0 0 846.73 64.89"><defs><style>.cls-1{fill:none;}.cls-2,.cls-3{fill:#1d1d1b;}.cls-2{fill-rule:evenodd;}.cls-4,.cls-5,.cls-6,.cls-7{fill:#fff;stroke-miterlimit:10;stroke-width:5px;}.cls-4{stroke:#54b797;}.cls-5{stroke:#73c1d3;}.cls-6{stroke:#ffd500;}.cls-7{stroke:#c3797d;}</style></defs><title>линия</title><path class="cls-1" d="M0,63a152.24,152.24,0,0,0,19.11,1.84L19.75,45A132.14,132.14,0,0,1,3.18,43.41Z"/><polygon class="cls-2" points="14.83 53.98 14.7 55.96 16.37 56.09 18.05 56.14 18.13 54.16 16.48 54.11 14.83 53.98"/><polygon class="cls-2" points="8.91 53.49 8.69 55.46 12.04 55.74 12.21 53.76 8.91 53.49"/><polygon class="cls-2" points="3.04 52.67 2.74 54.63 6.07 55.09 6.32 53.13 3.04 52.67"/><path class="cls-1" d="M19.69,64.81a145.5,145.5,0,0,0,19.24-.71L36.82,44.41A125.64,125.64,0,0,1,20.25,45Z"/><polygon class="cls-2" points="33.19 53.94 33.33 55.91 36.68 55.65 36.49 53.68 33.19 53.94"/><polygon class="cls-2" points="27.25 54.22 27.31 56.2 30.67 56.12 30.57 54.14 27.25 54.22"/><path class="cls-2" d="M21.34,54.25l0,2c1.12,0,2.24.1,3.36,0v-2C23.54,54.35,22.44,54.27,21.34,54.25Z"/><path class="cls-1" d="M39.5,64c3.18-.42,6.37-.77,9.51-1.4,1.57-.3,3.16-.52,4.71-.89l4.66-1.06L53.72,41.43l-4.08.93c-1.36.33-2.73.51-4.1.77-2.73.56-5.48.84-8.23,1.22Z"/><polygon class="cls-2" points="51.37 51.4 51.78 53.33 55.05 52.59 54.6 50.66 51.37 51.4"/><polygon class="cls-2" points="45.53 52.48 45.85 54.43 49.16 53.84 48.79 51.9 45.53 52.48"/><polygon class="cls-2" points="39.67 53.31 39.91 55.28 43.24 54.84 42.95 52.88 39.67 53.31"/><path class="cls-1" d="M58.94,60.55C65.09,59,71.18,57.19,77.06,55L70.4,36.39a168.88,168.88,0,0,1-16.19,4.93Z"/><polygon class="cls-2" points="69.11 46.58 69.74 48.46 72.9 47.36 72.25 45.49 69.11 46.58"/><polygon class="cls-2" points="63.44 48.35 64 50.25 67.2 49.26 66.6 47.37 63.44 48.35"/><polygon class="cls-2" points="57.72 49.92 58.21 51.84 61.45 50.96 60.92 49.05 57.72 49.92"/><path class="cls-1" d="M77.59,54.85c5.87-2.14,11.65-4.45,17.24-6.92L86.92,29.78c-5.34,2.36-10.68,4.48-16,6.45Z"/><polygon class="cls-2" points="86.33 40.05 87.1 41.88 90.17 40.55 89.38 38.74 86.33 40.05"/><polygon class="cls-2" points="80.82 42.31 81.55 44.15 84.64 42.88 83.89 41.05 80.82 42.31"/><polygon class="cls-2" points="75.27 44.42 75.96 46.28 79.08 45.09 78.38 43.24 75.27 44.42"/><path class="cls-1" d="M95.34,47.71c5.6-2.46,11.1-5,16.51-7.52l-8.32-18c-5.43,2.52-10.78,5-16.13,7.34Z"/><rect class="cls-3" x="103.44" y="31.74" width="3.33" height="1.98" transform="translate(-4.03 47.12) rotate(-24.81)"/><rect class="cls-3" x="98.01" y="34.24" width="3.33" height="1.98" transform="translate(-5.64 44.46) rotate(-24.47)"/><polygon class="cls-2" points="92.33 37.46 93.13 39.27 96.18 37.9 95.36 36.1 92.33 37.46"/><path class="cls-1" d="M112.34,40c5.4-2.5,10.75-4.94,16.06-7.21l-7.72-18.23C115,17,109.47,19.48,104,22Z"/><polygon class="cls-2" points="119.99 24.85 120.79 26.67 123.83 25.34 123.05 23.52 119.99 24.85"/><polygon class="cls-2" points="114.53 27.3 115.35 29.1 118.38 27.73 117.57 25.93 114.53 27.3"/><polygon class="cls-2" points="109.12 29.78 109.95 31.58 112.97 30.19 112.14 28.39 109.12 29.78"/><path class="cls-1" d="M128.88,32.56a167.37,167.37,0,0,1,15.88-5.87L139,7.77c-6.13,1.9-12.06,4.13-17.75,6.54Z"/><path class="cls-2" d="M137.2,18l.65,1.87c1-.34,2.07-.75,3.13-1.05l-.6-1.88C139.3,17.25,138.26,17.66,137.2,18Z"/><polygon class="cls-2" points="131.57 20.06 132.28 21.91 135.37 20.74 134.7 18.88 131.57 20.06"/><polygon class="cls-2" points="126.03 22.27 126.78 24.1 129.85 22.84 129.11 21 126.03 22.27"/><path class="cls-1" d="M145.24,26.55a89.08,89.08,0,0,1,15.82-3.44L158.69,3.45A109.42,109.42,0,0,0,139.5,7.6Z"/><path class="cls-2" d="M155.15,13.25l.34,1.95c1.07-.19,2.16-.31,3.24-.47l-.26-2C157.36,12.93,156.25,13.05,155.15,13.25Z"/><path class="cls-2" d="M149.26,14.47l.46,1.93c1.05-.3,2.14-.46,3.21-.69l-.39-1.94C151.45,14,150.34,14.17,149.26,14.47Z"/><path class="cls-2" d="M143.48,16l.55,1.9c1.05-.34,2.11-.61,3.17-.87l-.5-1.92C145.62,15.39,144.54,15.67,143.48,16Z"/><path class="cls-1" d="M161.53,23A73.31,73.31,0,0,1,177.2,23l2.2-19.68a93.32,93.32,0,0,0-20.12.06Z"/><polygon class="cls-2" points="173.7 12.09 173.6 14.07 176.86 14.28 177.05 12.31 173.7 12.09"/><polygon class="cls-2" points="167.68 12.01 167.73 13.98 171 13.96 171.04 11.98 167.68 12.01"/><polygon class="cls-2" points="161.69 12.37 161.88 14.34 165.15 14.09 165.04 12.12 161.69 12.37"/><path class="cls-1" d="M177.66,23.06l3.87.54,3.84.83c1.25.23,2.66.68,4,1.05l4.08,1.14,5.7-19-4.55-1.28c-1.54-.41-3-.88-4.67-1.21L185,4.11l-5-.71Z"/><polygon class="cls-2" points="192.01 15.21 191.49 17.12 194.67 18.01 195.23 16.11 192.01 15.21"/><path class="cls-2" d="M186.18,13.77l-.41,1.93c1.06.24,2.13.45,3.2.71l.49-1.92C188.37,14.23,187.27,14,186.18,13.77Z"/><path class="cls-2" d="M180.27,12.72l-.26,2c1.07.16,2.16.29,3.23.47l.36-2C182.49,13,181.38,12.88,180.27,12.72Z"/><path class="cls-1" d="M194,26.76c2.71.89,5.42,1.73,8.13,2.67s5.41,1.91,8.15,3l7.06-18.49c-2.82-1.12-5.79-2.13-8.68-3.2s-5.93-2-8.9-2.93Z"/><path class="cls-2" d="M209.64,20.9,209,22.76c1,.38,2.08.73,3.11,1.14l.7-1.85C211.74,21.64,210.68,21.29,209.64,20.9Z"/><path class="cls-2" d="M204,18.88l-.64,1.88c1,.33,2.08.74,3.12,1.1l.66-1.86C206.1,19.63,205.07,19.22,204,18.88Z"/><polygon class="cls-2" points="198.33 17.03 197.74 18.92 200.89 19.95 201.5 18.07 198.33 17.03"/><path class="cls-1" d="M210.72,32.62c2.72,1.05,5.45,2.11,8.22,3.24l8.34,3.33,7.3-18.4-8.3-3.32c-2.78-1.13-5.62-2.23-8.47-3.33Z"/><polygon class="cls-2" points="226.87 27.61 226.13 29.45 229.23 30.69 229.96 28.85 226.87 27.61"/><rect class="cls-3" x="221.52" y="25.27" width="1.98" height="3.33" transform="translate(115.22 223.72) rotate(-68.3)"/><polygon class="cls-2" points="215.78 23.22 215.07 25.07 218.16 26.26 218.89 24.42 215.78 23.22"/><path class="cls-1" d="M227.79,39.39c2.79,1.12,5.68,2.21,8.52,3.31s5.81,2.1,8.73,3.14l6.39-18.74c-2.72-1-5.43-1.93-8.16-2.94s-5.43-2.06-8.19-3.18Z"/><polygon class="cls-2" points="244.09 34.24 243.41 36.11 246.56 37.24 247.21 35.37 244.09 34.24"/><path class="cls-2" d="M238.5,32.18,237.79,34c1,.4,2.07.82,3.13,1.18l.68-1.86C240.56,33,239.53,32.57,238.5,32.18Z"/><polygon class="cls-2" points="232.95 30.04 232.23 31.88 235.34 33.09 236.05 31.24 232.95 30.04"/><path class="cls-1" d="M245.57,46,250,47.45c1.49.47,3,1,4.48,1.37L259,50.09c1.51.43,3,.85,4.56,1.18L268.31,32c-1.39-.29-2.75-.67-4.12-1.07l-4.1-1.14c-1.38-.36-2.73-.83-4.09-1.26l-4.08-1.32Z"/><path class="cls-2" d="M261.63,39.81l-.51,1.91c1.07.29,2.14.63,3.23.88l.48-1.92C263.76,40.43,262.7,40.1,261.63,39.81Z"/><polygon class="cls-2" points="255.9 38.21 255.33 40.1 258.56 41.01 259.1 39.1 255.9 38.21"/><polygon class="cls-2" points="250.26 36.38 249.63 38.26 252.82 39.29 253.42 37.4 250.26 36.38"/><path class="cls-1" d="M264.15,51.4c6.11,1.49,12.31,2.64,18.51,3.57l2.83-19.6c-5.61-.84-11.18-1.86-16.68-3.22Z"/><path class="cls-2" d="M279.6,43.75l-.33,2c1.1.18,2.2.41,3.3.57l.3-2C281.77,44.16,280.69,43.93,279.6,43.75Z"/><polygon class="cls-2" points="273.75 42.7 273.36 44.64 276.65 45.23 277.01 43.28 273.75 42.7"/><polygon class="cls-2" points="267.96 41.4 267.51 43.33 270.78 44.08 271.19 42.14 267.96 41.4"/><path class="cls-1" d="M283.22,55c3.12.37,6.23.84,9.34,1.13l9.35.7L303,37.11l-8.53-.65c-2.84-.26-5.64-.69-8.47-1Z"/><polygon class="cls-2" points="297.87 45.94 297.72 47.91 301.06 48.17 301.18 46.19 297.87 45.94"/><path class="cls-2" d="M291.94,45.46l-.21,2c1.11.15,2.23.19,3.34.28l.17-2C294.14,45.64,293,45.6,291.94,45.46Z"/><polygon class="cls-2" points="286.06 44.71 285.79 46.67 289.11 47.1 289.35 45.13 286.06 44.71"/><path class="cls-1" d="M302.47,56.92c6.22.16,12.45.48,18.63.23l-.35-19.79c-5.78.24-11.5-.07-17.24-.21Z"/><polygon class="cls-2" points="316.27 46.65 316.27 48.63 319.61 48.56 319.59 46.58 316.27 46.65"/><polygon class="cls-2" points="310.31 46.54 310.27 48.52 313.62 48.61 313.63 46.63 310.31 46.54"/><polygon class="cls-2" points="304.38 46.39 304.29 48.37 307.63 48.45 307.7 46.47 304.38 46.39"/><polygon class="cls-1" points="321.65 57.14 326.29 57.04 328.61 56.99 330.92 56.84 340.14 56.26 338.59 36.52 329.92 37.07 327.75 37.21 325.59 37.26 321.27 37.34 321.65 57.14"/><polygon class="cls-2" points="334.68 45.98 334.81 47.96 338.14 47.75 338 45.77 334.68 45.98"/><polygon class="cls-2" points="328.73 46.36 328.82 48.34 332.16 48.13 332.05 46.15 328.73 46.36"/><polygon class="cls-2" points="322.8 46.51 322.85 48.49 326.19 48.42 326.12 46.45 322.8 46.51"/><path class="cls-1" d="M340.7,56.22c.77,0,1.53-.09,2.31-.16l2.32-.26,4.65-.51,4.65-.52c1.55-.21,3.11-.51,4.67-.76l-3.18-19.54c-1.4.22-2.77.5-4.18.68l-4.26.47-4.27.48-2.13.24c-.72.06-1.44.09-2.17.14Z"/><path class="cls-2" d="M353,44.28l.27,2c1.11-.12,2.2-.35,3.31-.52l-.31-2C355.2,43.94,354.12,44.17,353,44.28Z"/><polygon class="cls-2" points="347.1 44.94 347.32 46.91 350.65 46.54 350.4 44.58 347.1 44.94"/><path class="cls-2" d="M341.2,45.57l.17,2c1.11-.06,2.22-.23,3.33-.34l-.19-2C343.4,45.34,342.31,45.51,341.2,45.57Z"/><path class="cls-1" d="M359.86,53.92c3.12-.53,6.23-1,9.36-1.8l4.69-1.1,1.17-.28,1.17-.35,2.33-.71-5.73-19-2,.61-1,.3-1,.23-4,1c-2.66.7-5.47,1.1-8.24,1.58Z"/><path class="cls-2" d="M371.06,40.8l.5,1.92c1.1-.23,2.17-.57,3.24-.9l-.55-1.9C373.2,40.24,372.15,40.58,371.06,40.8Z"/><polygon class="cls-2" points="365.28 42.16 365.69 44.09 368.97 43.33 368.51 41.4 365.28 42.16"/><polygon class="cls-2" points="359.46 43.24 359.8 45.19 363.11 44.63 362.73 42.69 359.46 43.24"/><path class="cls-1" d="M379.13,49.51c1.55-.5,3.12-.92,4.64-1.48l4.56-1.72c.76-.3,1.53-.57,2.27-.89l2.19-1c1.45-.65,2.95-1.28,4.36-2L388.7,24.59c-1.29.61-2.55,1.14-3.82,1.72l-1.91.84c-.63.28-1.28.49-1.91.74l-3.83,1.46c-1.28.47-2.61.81-3.91,1.23Z"/><polygon class="cls-2" points="388.4 34.81 389.19 36.62 392.26 35.26 391.43 33.46 388.4 34.81"/><polygon class="cls-2" points="382.9 37.03 383.6 38.89 386.74 37.69 385.99 35.86 382.9 37.03"/><path class="cls-2" d="M377.31,39l.61,1.88c1.06-.35,2.16-.6,3.2-1L380.46,38C379.44,38.38,378.36,38.63,377.31,39Z"/><polygon class="cls-1" points="397.65 42.26 405.82 38.26 407.81 37.27 409.74 36.36 413.59 34.56 405.53 16.48 401.26 18.48 399.13 19.48 397.1 20.48 389.17 24.36 397.65 42.26"/><polygon class="cls-2" points="405.04 26.86 405.89 28.65 408.89 27.24 408.07 25.44 405.04 26.86"/><polygon class="cls-2" points="399.67 29.48 400.54 31.25 403.52 29.78 402.65 28 399.67 29.48"/><polygon class="cls-2" points="394.33 32.09 395.18 33.87 398.19 32.41 397.31 30.64 394.33 32.09"/><path class="cls-1" d="M414.05,34.37c2.56-1,5.07-2.21,7.68-3L425.62,30c1.32-.39,2.66-.74,4-1.12L424.28,9.79c-1.55.43-3.1.85-4.64,1.31l-4.59,1.6c-3.09,1-6,2.34-9,3.56Z"/><path class="cls-2" d="M422.25,19.93l.6,1.88c1-.34,2.12-.6,3.17-.91l-.55-1.9C424.4,19.31,423.31,19.58,422.25,19.93Z"/><polygon class="cls-2" points="416.58 21.91 417.28 23.76 420.39 22.68 419.74 20.8 416.58 21.91"/><polygon class="cls-2" points="411.04 24.15 411.81 25.97 414.86 24.7 414.13 22.86 411.04 24.15"/><path class="cls-1" d="M430.08,28.72c1.35-.35,2.65-.79,4-1.08l4.12-.86,4.11-.88,4.22-.64L443.43,5.71l-4.64.71-4.65,1-4.66,1c-1.55.33-3.1.83-4.65,1.24Z"/><path class="cls-2" d="M440.27,15.51l.36,2c1.08-.2,2.17-.34,3.26-.51l-.32-2C442.47,15.17,441.37,15.31,440.27,15.51Z"/><polygon class="cls-2" points="434.4 16.75 434.83 18.68 438.06 18 437.67 16.06 434.4 16.75"/><path class="cls-2" d="M428.59,18.13l.5,1.92c1.07-.28,2.11-.63,3.2-.83l-.46-1.92C430.73,17.49,429.67,17.85,428.59,18.13Z"/><path class="cls-1" d="M447.06,25.18l4.23-.64c.7-.1,1.4-.23,2.11-.31l2.16-.22,8.61-.87L462.49,3.42l-9.23.93L451,4.58c-.77.09-1.54.23-2.32.34l-4.64.7Z"/><polygon class="cls-2" points="458.63 13.05 458.83 15.02 462.13 14.69 461.95 12.72 458.63 13.05"/><polygon class="cls-2" points="452.67 13.65 452.91 15.62 456.21 15.29 455.99 13.32 452.67 13.65"/><polygon class="cls-2" points="446.76 14.51 447.06 16.46 450.33 15.97 450.07 14.01 446.76 14.51"/><path class="cls-1" d="M464.69,23.09c5.72-.47,11.41-.78,17.05-.72l.08-19.8c-6.33-.06-12.58.28-18.78.79Z"/><path class="cls-2" d="M477.11,11.8l0,2c1.1,0,2.2,0,3.31,0v-2C479.33,11.76,478.22,11.75,477.11,11.8Z"/><path class="cls-2" d="M471.12,12l.1,2c1.1-.08,2.21-.08,3.31-.13l-.07-2C473.35,11.93,472.23,11.93,471.12,12Z"/><polygon class="cls-2" points="465.16 12.4 465.32 14.37 468.62 14.16 468.5 12.19 465.16 12.4"/><path class="cls-1" d="M482.24,22.37A136.09,136.09,0,0,1,499,23.42l2.49-19.64a155.14,155.14,0,0,0-19.07-1.21Z"/><polygon class="cls-2" points="495.64 12.39 495.46 14.36 498.74 14.72 498.97 12.75 495.64 12.39"/><path class="cls-2" d="M489.66,12l-.11,2c1.11,0,2.2.15,3.3.22l.14-2C491.88,12.12,490.77,12,489.66,12Z"/><path class="cls-2" d="M483.68,11.77l0,2c1.11,0,2.2.06,3.31.09l.06-2C485.91,11.83,484.8,11.75,483.68,11.77Z"/><path class="cls-1" d="M499.45,23.47a127,127,0,0,1,16.29,3.27l5.14-19.12A146.4,146.4,0,0,0,502,3.84Z"/><path class="cls-2" d="M514,15.36l-.45,1.93c1.08.23,2.14.51,3.2.79l.5-1.91C516.12,15.88,515,15.6,514,15.36Z"/><path class="cls-2" d="M508.08,14.13l-.36,1.95c1.07.21,2.16.38,3.23.63l.41-1.93C510.28,14.53,509.17,14.35,508.08,14.13Z"/><polygon class="cls-2" points="502.18 13.16 501.9 15.12 505.16 15.61 505.49 13.66 502.18 13.16"/><path class="cls-1" d="M516.22,26.87c5.39,1.46,10.77,3.29,16.28,5.29l6.76-18.61c-5.73-2.08-11.68-4.11-17.83-5.78Z"/><polygon class="cls-2" points="531.73 20.63 531.07 22.5 534.2 23.61 534.87 21.75 531.73 20.63"/><path class="cls-2" d="M526.05,18.74l-.61,1.88c1,.34,2.1.67,3.15,1l.63-1.87C528.17,19.41,527.11,19.08,526.05,18.74Z"/><polygon class="cls-2" points="520.33 17.01 519.79 18.91 522.96 19.84 523.54 17.94 520.33 17.01"/><path class="cls-1" d="M533,32.34c5.52,2,11.17,4.17,17,6.2l6.53-18.69c-5.48-1.91-11-4-16.73-6.11Z"/><polygon class="cls-2" points="549.09 26.97 548.41 28.83 551.55 29.96 552.22 28.09 549.09 26.97"/><polygon class="cls-2" points="543.49 24.92 542.8 26.77 545.92 27.93 546.61 26.07 543.49 24.92"/><polygon class="cls-2" points="537.9 22.85 537.22 24.71 540.34 25.86 541.03 24 537.9 22.85"/><path class="cls-1" d="M550.49,38.72c5.82,2,11.79,3.92,17.85,5.5l5.06-19.14C567.9,23.65,562.46,21.91,557,20Z"/><polygon class="cls-2" points="566.58 32.74 566.03 34.65 569.26 35.54 569.78 33.63 566.58 32.74"/><path class="cls-2" d="M560.89,31l-.6,1.89c1.06.35,2.13.66,3.2,1l.57-1.89C563,31.67,561.94,31.36,560.89,31Z"/><path class="cls-2" d="M555.25,29.15,554.61,31c1.06.36,2.11.73,3.17,1.07l.62-1.89C557.34,29.87,556.3,29.5,555.25,29.15Z"/><path class="cls-1" d="M568.89,44.37c6.07,1.58,12.21,2.87,18.37,4l3.32-19.52c-5.61-1-11.18-2.15-16.68-3.58Z"/><polygon class="cls-2" points="584.48 37.03 584.1 38.97 587.39 39.59 587.74 37.64 584.48 37.03"/><polygon class="cls-2" points="578.65 35.82 578.22 37.75 581.49 38.46 581.89 36.52 578.65 35.82"/><polygon class="cls-2" points="572.88 34.45 572.39 36.36 575.65 37.17 576.11 35.24 572.88 34.45"/><path class="cls-1" d="M587.82,48.41c3.08.49,6.16,1,9.25,1.35s6.18.7,9.27,1l1.8-19.71c-2.86-.3-5.73-.54-8.56-.94s-5.67-.79-8.49-1.24Z"/><polygon class="cls-2" points="602.68 39.76 602.47 41.72 605.8 42.06 605.99 40.09 602.68 39.76"/><polygon class="cls-2" points="596.77 39.03 596.51 40.99 599.83 41.42 600.07 39.45 596.77 39.03"/><polygon class="cls-2" points="590.91 38.16 590.59 40.12 593.9 40.64 594.18 38.68 590.91 38.16"/><path class="cls-1" d="M606.9,50.83c3.08.26,6.17.47,9.25.67s6.17.32,9.24.39L626,32.1c-2.9-.07-5.78-.25-8.68-.36s-5.76-.39-8.63-.63Z"/><polygon class="cls-2" points="621.06 41.12 620.97 43.09 624.31 43.24 624.38 41.26 621.06 41.12"/><path class="cls-2" d="M615.11,40.82l-.13,2c1.11.09,2.23.13,3.34.18l.1-2C617.32,40.94,616.21,40.91,615.11,40.82Z"/><polygon class="cls-2" points="609.19 40.39 609.02 42.36 612.36 42.6 612.5 40.63 609.19 40.39"/><path class="cls-1" d="M625.94,51.9c3.07,0,6.16.17,9.22.13l4.59,0h2.3l2.4-.08-.6-19.79-2.09.08h-6.55c-2.92.05-5.82-.09-8.73-.12Z"/><path class="cls-2" d="M639.49,41.41v2c1.12,0,2.23,0,3.35,0l0-2C641.71,41.43,640.59,41.4,639.49,41.41Z"/><polygon class="cls-2" points="633.53 41.44 633.51 43.41 636.85 43.4 636.85 41.42 633.53 41.44"/><polygon class="cls-2" points="627.59 41.33 627.54 43.31 630.88 43.38 630.91 41.4 627.59 41.33"/><path class="cls-1" d="M645,51.9a166.52,166.52,0,0,0,19-1.78l-2.9-19.59a143,143,0,0,1-16.74,1.58Z"/><polygon class="cls-2" points="657.83 40.25 658.07 42.21 661.4 41.8 661.12 39.84 657.83 40.25"/><path class="cls-2" d="M651.92,40.86l.17,2c1.11-.11,2.23-.17,3.34-.3l-.21-2C654.12,40.7,653,40.76,651.92,40.86Z"/><path class="cls-2" d="M646,41.25l.09,2c1.12,0,2.24-.06,3.35-.18l-.13-2C648.22,41.19,647.11,41.2,646,41.25Z"/><path class="cls-1" d="M664.54,50l4.64-.73,4.59-.86c3.08-.55,6.06-1.27,9.1-1.9l-4.39-19.31c-2.82.58-5.65,1.28-8.46,1.77l-4.22.79-4.21.66Z"/><polygon class="cls-2" points="675.98 37.18 676.39 39.12 679.66 38.41 679.23 36.48 675.98 37.18"/><polygon class="cls-2" points="670.14 38.34 670.5 40.28 673.79 39.66 673.4 37.72 670.14 38.34"/><polygon class="cls-2" points="664.29 39.34 664.6 41.3 667.91 40.77 667.57 38.82 664.29 39.34"/><path class="cls-1" d="M683.41,46.41c6-1.4,11.94-2.91,17.79-4.53L696,22.79q-8.51,2.36-17,4.32Z"/><polygon class="cls-2" points="693.9 32.88 694.41 34.79 697.63 33.91 697.11 32 693.9 32.88"/><polygon class="cls-2" points="688.13 34.37 688.61 36.29 691.85 35.45 691.35 33.54 688.13 34.37"/><polygon class="cls-2" points="682.36 35.76 682.81 37.69 686.06 36.92 685.59 34.99 682.36 35.76"/><path class="cls-1" d="M701.73,41.73c5.85-1.62,11.65-3.31,17.4-5l-5.61-19q-8.57,2.55-17.06,4.92Z"/><rect class="cls-3" x="711.88" y="27.36" width="3.33" height="1.98" transform="translate(20.79 201.67) rotate(-16.32)"/><rect class="cls-3" x="706.14" y="29.03" width="3.33" height="1.98" transform="translate(19.2 196.51) rotate(-16.02)"/><polygon class="cls-2" points="700.22 31.16 700.75 33.06 703.96 32.15 703.42 30.25 700.22 31.16"/><polygon class="cls-1" points="719.65 36.57 736.8 31.51 731.29 12.49 714.04 17.58 719.65 36.57"/><rect class="cls-3" x="729.59" y="22.13" width="3.33" height="1.98" transform="translate(23.11 206.97) rotate(-16.36)"/><rect class="cls-3" x="723.87" y="23.81" width="3.33" height="1.98" transform="translate(22.83 207.09) rotate(-16.5)"/><rect class="cls-3" x="718.16" y="25.5" width="3.33" height="1.98" transform="translate(22.1 205.48) rotate(-16.5)"/><path class="cls-1" d="M737.31,31.36c5.69-1.64,11.35-3.23,17-4.68L749.39,7.5c-5.93,1.53-11.78,3.17-17.58,4.84Z"/><polygon class="cls-2" points="747.17 17.6 747.68 19.51 750.89 18.67 750.39 16.75 747.17 17.6"/><polygon class="cls-2" points="741.4 19.18 741.94 21.09 745.14 20.2 744.62 18.29 741.4 19.18"/><rect class="cls-3" x="735.88" y="20.31" width="3.33" height="1.98" transform="translate(22.84 204.67) rotate(-16.04)"/><path class="cls-1" d="M754.82,26.55c5.65-1.41,11.29-2.78,16.91-3.81L768,3.29c-6.15,1.14-12.13,2.59-18.08,4.08Z"/><path class="cls-2" d="M765.16,13.24l.41,1.93c1.07-.24,2.16-.43,3.24-.65l-.38-1.94C767.34,12.8,766.24,13,765.16,13.24Z"/><polygon class="cls-2" points="759.31 14.53 759.76 16.46 763 15.74 762.57 13.81 759.31 14.53"/><polygon class="cls-2" points="753.52 15.94 754 17.86 757.23 17.08 756.76 15.15 753.52 15.94"/><path class="cls-1" d="M772.23,22.64A161.21,161.21,0,0,1,789,20.27L787.3.55a181.35,181.35,0,0,0-18.74,2.63Z"/><path class="cls-2" d="M783.43,10.18l.23,2c1.09-.15,2.19-.24,3.29-.34l-.19-2C785.65,9.93,784.54,10,783.43,10.18Z"/><path class="cls-2" d="M777.49,11l.3,2c1.09-.2,2.18-.31,3.27-.46l-.26-2C779.7,10.67,778.59,10.78,777.49,11Z"/><path class="cls-2" d="M771.6,12l.36,1.95c1.08-.21,2.17-.37,3.26-.55l-.32-2C773.8,11.59,772.69,11.75,771.6,12Z"/><path class="cls-1" d="M789.49,20.23a101.13,101.13,0,0,1,16.4-.17L807.3.31A119.82,119.82,0,0,0,787.87.5Z"/><path class="cls-2" d="M802,9.24l-.05,2c1.1,0,2.19.09,3.29.15l.11-2C804.2,9.33,803.08,9.22,802,9.24Z"/><path class="cls-2" d="M796,9.25l0,2c1.1-.08,2.2,0,3.29,0v-2C798.19,9.22,797.07,9.17,796,9.25Z"/><path class="cls-2" d="M790,9.55l.15,2c1.09-.12,2.19-.12,3.29-.18l-.1-2C792.21,9.42,791.09,9.42,790,9.55Z"/><path class="cls-1" d="M806.37,20.09a37.25,37.25,0,0,1,4,.41c1.31.19,2.66.27,3.93.58l3.87.76,3.76,1,5.66-19-4.88-1.34-4.93-1c-1.64-.37-3.29-.5-4.94-.74s-3.29-.43-4.93-.5Z"/><path class="cls-2" d="M820.41,11.49,820,13.42c1.06.26,2.11.57,3.16.86l.53-1.91C822.57,12.08,821.5,11.76,820.41,11.49Z"/><path class="cls-2" d="M814.5,10.34l-.31,2c1.08.17,2.15.41,3.22.61L817.8,11C816.7,10.76,815.61,10.51,814.5,10.34Z"/><path class="cls-2" d="M808.55,9.61l-.18,2c1.09.08,2.17.26,3.26.39l.25-2C810.77,9.88,809.66,9.69,808.55,9.61Z"/><path class="cls-1" d="M822.36,23a66.72,66.72,0,0,1,14.09,6.3l10.28-16.92a85.57,85.57,0,0,0-18.57-8.3Z"/><polygon class="cls-2" points="837.86 17.94 836.94 19.7 839.79 21.3 840.79 19.59 837.86 17.94"/><polygon class="cls-2" points="832.4 15.38 831.63 17.2 834.61 18.56 835.46 16.77 832.4 15.38"/><polygon class="cls-2" points="826.77 13.28 826.16 15.16 829.23 16.27 829.93 14.42 826.77 13.28"/><circle class="cls-4" cx="122.78" cy="27.61" r="8"/><circle class="cls-5" cx="322.23" cy="47.61" r="8"/><circle class="cls-6" cx="521.68" cy="16.61" r="8"/><circle class="cls-7" cx="720.74" cy="24.61" r="8"/></svg>