<svg id="Слой_1" data-name="Слой 1" xmlns="http://www.w3.org/2000/svg" viewBox="0 0 105.97 116.31"><defs><style>.cls-1{fill:#fff;stroke:#ffd500;stroke-miterlimit:10;stroke-width:5px;}.cls-2{fill:#0593a1;}.cls-3{fill:#5ac6d1;}.cls-4{fill:#fdb857;}.cls-5{fill:#fdd49a;}.cls-6{fill:#1d1d1b;}</style></defs><title>презентация</title><path class="cls-1" d="M94.94,24.08,61.52,4.79a17.07,17.07,0,0,0-17.07,0L11,24.08A17.05,17.05,0,0,0,2.5,38.86V77.45A17.05,17.05,0,0,0,11,92.23l33.41,19.29a17.07,17.07,0,0,0,17.07,0L94.94,92.23a17.06,17.06,0,0,0,8.53-14.78V38.86A17.06,17.06,0,0,0,94.94,24.08Z"/><path class="cls-2" d="M88.8,30.58V65H70.1a1.37,1.37,0,0,0-.17-.23h0a1.9,1.9,0,0,0-.33-.22h0a1.26,1.26,0,0,0-.33-.1l0-.1.06-.13a1.13,1.13,0,0,0,.08-.24.7.7,0,0,0,0-.14s0-.08,0-.11H87.29a.23.23,0,0,0,.22-.22V32.09a.23.23,0,0,0-.22-.22H43.55a.21.21,0,0,0-.21.22V43.63l-.18-.05c-.3-.07-.62-.14-.95-.19l-.16,0V30.58Z"/><path class="cls-2" d="M66.8,80.54V89.1H43.88l4.77-7.78a.24.24,0,0,0,0-.3L47,79.89l1.9.17h0a.21.21,0,0,0,.21-.15l1.09-4.47,4.13,1.06a6.05,6.05,0,0,1,3.88,3.91.21.21,0,0,0,.21.14H66.8Zm-.9,1.57a.48.48,0,1,0-.48-.48A.48.48,0,0,0,65.9,82.11Zm.47,1a.48.48,0,0,0-.47-.47.47.47,0,1,0,.47.47Zm0,1.48a.48.48,0,1,0-.47.47A.47.47,0,0,0,66.37,84.58Z"/><path class="cls-2" d="M47.52,63.67H63.06l-.4.31-.08.07-.24.18,0,0a1.5,1.5,0,0,0-.15.12,3.43,3.43,0,0,0-.28.27l-.08.1-.17.21H47.07c0-.06,0-.13.06-.18.12-.31.24-.62.34-1A1.31,1.31,0,0,0,47.52,63.67Z"/><path class="cls-3" d="M49.82,75.28l-1.06,4.34-2.5-.23h0a.23.23,0,0,0-.13.4l2.07,1.47L43.37,89.1H40.59l4.7-15.93Z"/><path class="cls-4" d="M47,46.38a7.47,7.47,0,0,1,2,5.38l-.28,3.74h-.06l-.11,0-.19,0-.12,0a.93.93,0,0,0-.19.11l-.1.05a2.83,2.83,0,0,0-.28.23V52a3.75,3.75,0,0,0-.07-.73.23.23,0,0,0-.22-.18l-2.32.06c-1,0-2,.07-3,.07-3.11,0-6.71-.3-9.76-2.49a.23.23,0,0,0-.24,0A3.83,3.83,0,0,0,30.2,52v4l-.28-.23-.09-.05a1.06,1.06,0,0,0-.21-.11l-.11,0-.2,0h-.16l-.28-3.73a7.56,7.56,0,0,1,2.05-5.39c2-2.13,3.95-2.81,8-2.81a21.36,21.36,0,0,1,2.85.18,9.21,9.21,0,0,1,1.68.37A7.8,7.8,0,0,1,47,46.38Z"/><polygon class="cls-4" points="44.9 72.96 43.24 78.57 42.32 79.55 40.67 78.13 39.87 77.43 39.27 76.92 44.05 72.34 44.9 72.96"/><path class="cls-5" d="M43,79.48l-.17.57-1.77,6-.52-5.71.18-1.64L42.2,80a.15.15,0,0,0,.13,0,0,0,0,0,1,0,0,.19.19,0,0,0,.15-.06Z"/><polygon class="cls-2" points="40.29 82.53 40.7 87.19 40.14 89.1 37.74 89.1 37.55 88.45 37.18 87.19 37.77 80.57 40.11 80.57 40.29 82.53"/><polygon class="cls-2" points="40.3 78.39 40.12 80.14 37.77 80.14 37.6 78.61 37.57 78.39 38.94 77.21 39.63 77.8 40.3 78.39"/><polygon class="cls-4" points="38.62 76.92 37.36 78 37.21 78.13 35.56 79.55 34.63 78.57 32.98 72.96 33.83 72.34 38.62 76.92"/><path class="cls-5" d="M37.18,78.72l.18,1.64-.51,5.71L35.65,82l-.75-2.51.5.51a.15.15,0,0,0,.14.06,0,0,0,0,0,0,0,.19.19,0,0,0,.14,0Z"/><path class="cls-3" d="M37.17,88.69l.13.41H34.51L29.7,81.26l2.07-1.47a.22.22,0,0,0,.07-.25.2.2,0,0,0-.21-.15l-2.51.23-1.06-4.34,4.54-2.11,1.94,6.57,2.22,7.53Z"/><path class="cls-2" d="M29.23,81.32,34,89.1H19.35V82.24a6,6,0,0,1,4.15-5.75l4.16-1.06,1.09,4.47a.2.2,0,0,0,.2.15h0l1.91-.17L29.29,81A.22.22,0,0,0,29.23,81.32Z"/><path class="cls-6" d="M77.41,56.05l3.38.9-3.38.92h-.06a.22.22,0,0,1-.21-.16.23.23,0,0,1,.16-.27L79.13,57l-1.83-.49a.21.21,0,0,1-.16-.26A.23.23,0,0,1,77.41,56.05Z"/><path class="cls-6" d="M66.36,81.63a.47.47,0,1,1-.47-.47A.48.48,0,0,1,66.36,81.63Z"/><path class="cls-6" d="M65.9,82.63a.48.48,0,0,1,.47.47.48.48,0,1,1-.47-.47Z"/><path class="cls-6" d="M65.9,84.12a.47.47,0,1,1-.48.46A.47.47,0,0,1,65.9,84.12Z"/><path class="cls-6" d="M51.18,38.5a.2.2,0,0,1-.25.15.22.22,0,0,1-.16-.27l.9-3.37.91,3.37a.22.22,0,0,1-.15.27h0a.24.24,0,0,1-.22-.16l-.49-1.83Z"/><path class="cls-6" d="M27.66,75.43,23.5,76.49a6,6,0,0,0-4.15,5.75V89.1H34l-4.78-7.78a.22.22,0,0,1,.06-.3l1.59-1.13L29,80.06h0a.2.2,0,0,1-.2-.15Zm38.73,4.68,0-2.81h0l-4.25,0h-.61l-2.34,0v2.83Zm.4-17.17a.8.8,0,0,0,0-.15.72.72,0,0,0-.19-.34,1,1,0,0,0-1.3-.06c-.39.36-1.08.92-1.46,1.22-.63.51-1.28,1-1.4,1.1s-.31.33-.53.6a28,28,0,0,0-2.15,3.25c0,.07-.06.28-.1.58a18.21,18.21,0,0,0-.22,2.61,5.41,5.41,0,0,0,.75,3.19.2.2,0,0,1,0,.14A6.3,6.3,0,0,1,60,76c0,.14-.06.3-.1.45l0,.16a.71.71,0,0,0,0,.2h2.07a.43.43,0,0,1,0,0s0,0,0,0,0,0,.06-.06a3,3,0,0,0,.37-.23,3.76,3.76,0,0,0,.84-.76,4.64,4.64,0,0,0,1.33-3.46.43.43,0,0,0,0-.11,1.77,1.77,0,0,1,0-.21,10.86,10.86,0,0,0-1.42-3.78L63,68a.44.44,0,0,0-.08-.11.21.21,0,0,1,0-.25l.73-1.5a.27.27,0,0,1,.07-.08l.11-.08c.07-.06.16-.11.24-.17.59-.45,1.15-.9,1.67-1.34l.81-.72a.91.91,0,0,0,.18-.21ZM47.13,64.78s0,.12-.06.18H61.62l.17-.21.08-.1a3.43,3.43,0,0,1,.28-.27,1.5,1.5,0,0,1,.15-.12l0,0,.24-.18.08-.07.4-.31H47.52a1.31,1.31,0,0,1-.05.15C47.37,64.16,47.25,64.47,47.13,64.78Zm-4-21.2.18.05V32.09a.21.21,0,0,1,.21-.22H87.29a.23.23,0,0,1,.22.22V63.45a.23.23,0,0,1-.22.22H69.47s0,.07,0,.11a.7.7,0,0,1,0,.14,1.13,1.13,0,0,1-.08.24l-.06.13,0,.1a1.26,1.26,0,0,1,.33.1h0a1.9,1.9,0,0,1,.33.22h0a1.37,1.37,0,0,1,.17.23H88.8V30.58H42.05V43.35l.16,0C42.54,43.44,42.86,43.51,43.16,43.58ZM40.7,78.72l-.18,1.64L41,86.07l1.77-6,.17-.57-.49.51a.19.19,0,0,1-.15.06,0,0,0,0,0,0,0,.15.15,0,0,1-.13,0Zm3.35-6.37-4.78,4.57.6.51.8.7,1.65,1.42.92-1L44.9,73Zm-6.5,16.1.19.65h2.4l.56-1.91-.41-4.66-.18-2H37.77l-.59,6.62Zm1.39-11.24-1.37,1.18,0,.22.17,1.53h2.35l.18-1.75-.67-.59ZM35.4,80l-.5-.51L35.65,82l1.2,4.08.51-5.71-.18-1.64L35.69,80a.19.19,0,0,1-.14,0,0,0,0,0,1,0,0A.15.15,0,0,1,35.4,80ZM34.33,70l-.2-.18a.17.17,0,0,0-.06-.06V72l4.87,4.64L43.81,72V69.77a.17.17,0,0,0-.06.06l-.2.18-.29.25-.21.16-.29.2-.22.12a2.3,2.3,0,0,1-.32.15L42,71l-.36.11-.26.07-.42.08-.27,0-.53,0-.26,0-.89,0H38.9a14.13,14.13,0,0,1-1.71-.09l-.09,0a3.88,3.88,0,0,1-.61-.11.66.66,0,0,0-.15,0L35.88,71l-.18-.07a3.14,3.14,0,0,1-.37-.18l-.19-.1-.32-.22-.2-.14ZM33,73l1.65,5.61.93,1,1.65-1.42.15-.13,1.26-1.08-4.79-4.57Zm-3.86,6.66,2.51-.23a.2.2,0,0,1,.21.15.22.22,0,0,1-.07.25L29.7,81.26l4.81,7.84H37.3l-.13-.41-.41-1.42-2.22-7.53L32.6,73.17l-4.54,2.11Zm38.5-16.75-.12.62a.21.21,0,0,1,0,.08c.08.53.49.95.91.9a1.21,1.21,0,0,0,.2-.07,1,1,0,0,0,.44-.94.22.22,0,0,0,0-.1,1.36,1.36,0,0,0-.1-.36l-.07-.11a1.33,1.33,0,0,0-.14-.19l-.1-.07a.57.57,0,0,0-.16-.11l-.12,0a.51.51,0,0,0-.21,0A.72.72,0,0,0,67.62,62.87Zm.08,4.9a.86.86,0,1,0,.83,1.49.17.17,0,0,1,.1,0h.08a.21.21,0,0,1,.11.1.2.2,0,0,1-.08.28l-.43.26a.72.72,0,0,0-.26,1,.74.74,0,0,0,1,.28l1-.62a.92.92,0,0,0,.14-.14.72.72,0,0,0,.13-.8.68.68,0,0,0-.89-.39.24.24,0,0,1-.3-.1.18.18,0,0,1,.06-.26l.62-.37a.9.9,0,0,0,.35-1,.87.87,0,0,0-1-.56.21.21,0,0,1-.25-.12.24.24,0,0,1,.09-.27l.13-.08c.61-.33.72-.83.56-1.18a.84.84,0,0,0-1-.43,1.82,1.82,0,0,0-.41.15l-.74.45a1,1,0,0,0-.48.56.81.81,0,0,0,.07.65.88.88,0,0,0,1,.33.2.2,0,0,1,.26.11.22.22,0,0,1-.08.27Zm1.16,6a7.47,7.47,0,0,1-2.13,3.11.19.19,0,0,1,.11.17l0,3H67a.23.23,0,0,1,.22.22v9a.21.21,0,0,1-.22.21H19.13a.21.21,0,0,1-.21-.21V82.24a6.49,6.49,0,0,1,4.46-6.17L27.74,75l4.88-2.29,1-.72V69.29c-.61-.73-1.28-1.7-2-2.8a13,13,0,0,1-1.66-4.39,1.19,1.19,0,0,1-.61-.08c-.88-.34-1.2-1.58-1.41-2.89-.32-2,0-3.25.81-3.55l-.29-3.79a7.91,7.91,0,0,1,2.17-5.71c2.07-2.2,4.17-2.93,8.32-2.93a23.68,23.68,0,0,1,2.69.14V30.37a.21.21,0,0,1,.21-.22H89a.23.23,0,0,1,.22.22v34.8a.22.22,0,0,1-.22.21H70.24a1.29,1.29,0,0,1-.42,1.15,1.31,1.31,0,0,1,.8.81,1.3,1.3,0,0,1-.47,1.46,1.21,1.21,0,0,1,.62.62,1.26,1.26,0,0,1,.1.49,1.13,1.13,0,0,1-.26.74l0,.07c-.06.12-.2.38-.39.72-.38.69-.73,1.3-1.08,1.89A3.39,3.39,0,0,0,68.86,73.8Zm-2.13-7.93a1.4,1.4,0,0,1,.65-.81l.47-.28,0,0-.2-.14-.06-.05a1.37,1.37,0,0,1-.19-.23h0l0,.13-.84-.16-.53.46c-.53.45-1.1.91-1.7,1.36l-.24.18-.06,0-.65,1.32a.47.47,0,0,1,.06.09.05.05,0,0,1,0,0l.07.13a10.82,10.82,0,0,1,1.47,3.93,1,1,0,0,0,0,.17l0,.12A5,5,0,0,1,63.54,76a4.4,4.4,0,0,1-.92.86s0,0-.06,0l3.65,0,0-.08a.23.23,0,0,1,.12-.15c1-.49,1.75-2.2,2.12-3,.12-.24.19-.42.25-.52.35-.57.7-1.18,1.08-1.86v0l-.21.13-.31.18a1,1,0,0,1-.41.14h-.18a1.12,1.12,0,0,1-.68-.23l0,0a1.23,1.23,0,0,1-.29-.31,1.19,1.19,0,0,1,.09-1.34,1.24,1.24,0,0,1-.84-.56L66.83,69a1.27,1.27,0,0,1,0-.51,1.4,1.4,0,0,1,.71-1.08h0a1.19,1.19,0,0,1-.77-1.52ZM56.57,53.32l-4.22,3.42H68.2l1.49-6.54-1.1-1.68L65,48.27l-3.17,4.4Zm-4.12,2.79,3.95-3.2,5.16-.64,3.2-4.45,4.07.29,1,1.51.87-3.83-3-2L63,44.4l-2.44,4.69-4.87,1.08ZM45.26,72.68,50.14,75l4.34,1.1a6.52,6.52,0,0,1,4.12,4h.15V77a.22.22,0,0,1,.22-.22h.42a1.4,1.4,0,0,0,.06-.24.9.9,0,0,0,0-.16l.11-.48c.08-.41.13-.68.16-.81A6.08,6.08,0,0,1,59,71.59a18.68,18.68,0,0,1,.32-3.09l0-.06a.14.14,0,0,1,0-.06s0,0,.06-.1a.3.3,0,0,0,0-.08l.11-.17a.88.88,0,0,1,.07-.13l.13-.21.1-.18.17-.27.13-.2.18-.29.14-.22c.07-.11.14-.2.21-.3s.09-.16.15-.24l.22-.3c.05-.06.1-.14.15-.21l.07-.1H46.88s0,0,0,.05c-.09.2-.19.39-.27.56l0,.05c-.09.16-.19.32-.28.45l-.55.81c0,.08-.11.15-.16.22s-.25.37-.37.53l-.22.3c-.09.13-.19.26-.28.37a2.88,2.88,0,0,1-.22.27c-.08.1-.16.21-.24.3V72Zm4.63-13.55c-.24,1.44-.48,2.57-1.34,2.89a1.18,1.18,0,0,1-.61.08c-.08.37-.18.74-.29,1.14h16l.16-.13.27-.22.17-.14.21-.18.19-.16.14-.11.24-.22a1.39,1.39,0,0,1,1.88.05.76.76,0,0,1,.08.11l1.16-5.07H51.46V38.67a.22.22,0,1,1,.43,0V56.24l3.49-6.45,4.87-1.08L62.68,44l5.06-.63,3,1.91,2.51-3.05,6.25-3.89a.2.2,0,0,1,.29.07.21.21,0,0,1-.07.29l-6.21,3.87L70.9,45.71,70.08,50l.39.59,5-4,4-1.29a.23.23,0,0,1,.28.14.21.21,0,0,1-.15.26l-4,1.28-5.28,4.25-.4-.63-1.17,6.12h8.56a.22.22,0,1,1,0,.43H68.71l-.95,5h0l.07,0a1.68,1.68,0,0,1,.24-.06.69.69,0,0,1,.25,0h0l.18,0,0,0a.48.48,0,0,1,.16.08l.06,0,.15.11,0,.06.13.13,0,.07.09.16a.25.25,0,0,1,0,.09.44.44,0,0,1,.06.16.34.34,0,0,1,0,.12s0,.07,0,.12H87.08V32.3H43.77V43.76l.49.2.4.16a5,5,0,0,1,.56.31,4,4,0,0,1,.35.2c.21.14.4.29.6.45l.26.2a8.91,8.91,0,0,1,.84.8,7.91,7.91,0,0,1,2.17,5.7l-.28,3.78.06,0a.52.52,0,0,1,.13.06.61.61,0,0,1,.15.12.55.55,0,0,1,.1.11.57.57,0,0,1,.11.16.8.8,0,0,1,.08.16.91.91,0,0,1,.09.22c0,.06,0,.11,0,.18s0,.18,0,.28l0,.22c0,.11,0,.23,0,.35v.23c0,.14,0,.29,0,.45s0,.15,0,.22C50,58.61,49.93,58.86,49.89,59.13ZM48.73,55.5,49,51.76a7.47,7.47,0,0,0-2-5.38,7.8,7.8,0,0,0-3.48-2.26,9.21,9.21,0,0,0-1.68-.37A21.36,21.36,0,0,0,39,43.57c-4.08,0-6,.68-8,2.81a7.56,7.56,0,0,0-2.05,5.39l.28,3.73h.16l.2,0,.11,0a1.06,1.06,0,0,1,.21.11l.09.05.28.23V52a3.83,3.83,0,0,1,1.87-3.28.23.23,0,0,1,.24,0c3,2.19,6.65,2.49,9.76,2.49,1,0,2,0,3-.07l2.32-.06a.23.23,0,0,1,.22.18,3.75,3.75,0,0,1,.07.73v4a2.83,2.83,0,0,1,.28-.23l.1-.05a.93.93,0,0,1,.19-.11l.12,0,.19,0,.11,0Zm.1.44a1.45,1.45,0,0,0-1.19.77.2.2,0,0,1-.09.07H47.4a.2.2,0,0,1-.15-.2V52a2.74,2.74,0,0,0,0-.48l-2.13.06c-1,0-2,.07-3,.07-3.14,0-6.77-.3-9.89-2.49A3.37,3.37,0,0,0,30.63,52v4.59a.2.2,0,0,1-.15.2.22.22,0,0,1-.24-.08c-.38-.55-.84-.84-1.25-.77-.83.13-.88,1.7-.65,3.12.19,1.18.46,2.3,1.15,2.56a.91.91,0,0,0,.43.05s.06,0,.08,0h.09a.23.23,0,0,1,.11,0,.2.2,0,0,1,.12.13A12.86,12.86,0,0,0,32,66.25a33.58,33.58,0,0,0,2,2.82C35.29,70.55,36.34,71,38.9,71H39c2.55,0,3.6-.4,4.87-1.88a31.34,31.34,0,0,0,2.06-2.82,7.17,7.17,0,0,0,.62-1.17,11.91,11.91,0,0,0,.62-1.69c.17-.56.29-1.08.41-1.6a.17.17,0,0,1,.1-.14.17.17,0,0,1,.17,0l.08,0h0a.88.88,0,0,0,.42-.05c.65-.25.87-1.31,1.07-2.56.31-1.87.1-3-.56-3.12Zm-.07,23.68,1.06-4.34-4.53-2.11L40.59,89.1h2.78l4.81-7.84-2.07-1.47a.23.23,0,0,1,.13-.4h0Zm.38.28a.21.21,0,0,1-.21.15h0L47,79.89,48.6,81a.24.24,0,0,1,0,.3L43.88,89.1H66.8V80.54H58.45a.21.21,0,0,1-.21-.14,6.05,6.05,0,0,0-3.88-3.91l-4.13-1.06Z"/></svg>