<svg id="Слой_1" data-name="Слой 1" xmlns="http://www.w3.org/2000/svg" viewBox="0 0 105.97 114.73"><defs><style>.cls-1{fill:#fff;stroke:#73c1d3;stroke-miterlimit:10;stroke-width:5px;}.cls-2{fill:#e96b57;}.cls-3{fill:#ff9180;}.cls-4{fill:#0593a1;}.cls-5{fill:#fdb857;}.cls-6{fill:#5ac6d1;}.cls-7{fill:#1d1d1b;}</style></defs><title>проект</title><path class="cls-1" d="M94.94,23.77l-33.42-19a17.31,17.31,0,0,0-17.07,0L11,23.77A16.78,16.78,0,0,0,2.5,38.35v38A16.78,16.78,0,0,0,11,91l33.41,19a17.31,17.31,0,0,0,17.07,0L94.94,91a16.79,16.79,0,0,0,8.53-14.58v-38A16.79,16.79,0,0,0,94.94,23.77Z"/><path class="cls-2" d="M81.91,90.79a1.51,1.51,0,0,1,0,1.16,1.6,1.6,0,0,1-.88.85l-2.54,1a1.55,1.55,0,0,1-2-.89L69.64,73.2l.07,0,3.85-1.5.06,0Z"/><path class="cls-2" d="M77.09,53.76a11.89,11.89,0,0,1-4,13.84,11.63,11.63,0,0,1-2.74,1.53,11.8,11.8,0,0,1-3.06.73,10.36,10.36,0,0,1-1.25.07A11.86,11.86,0,0,1,61.72,47,11.62,11.62,0,0,1,66,46.21a12.11,12.11,0,0,1,5.33,1.27v0h0l.09,0A11.84,11.84,0,0,1,77.09,53.76ZM71.73,65.44a9.31,9.31,0,1,0-14.38-4c.1.25.21.5.33.74a10,10,0,0,0,.94,1.51,9.39,9.39,0,0,0,7.43,3.68,9.15,9.15,0,0,0,5.68-2Z"/><path class="cls-3" d="M73.86,70.1a.83.83,0,0,1-.3,1,.55.55,0,0,1-.19.12l-3.84,1.5a.6.6,0,0,1-.25,0h-.07a.85.85,0,0,1-.8-.53l-.74-1.91c.3,0,.59-.11.88-.17s.34-.05.5-.09a14.14,14.14,0,0,0,1.48-.46,12.58,12.58,0,0,0,1.39-.66c.15-.08.3-.19.44-.27s.52-.3.76-.48Z"/><path class="cls-4" d="M70.25,78.44l0,.49L28.69,82l-4-53.72L29.12,28V78.19a.25.25,0,0,0,.25.25Z"/><rect class="cls-4" x="63.81" y="32.99" width="2.32" height="10.06"/><path class="cls-5" d="M65.6,55l-.35,3.54-.59-.32a.26.26,0,0,0-.34.09l-2.58,4.53-2.81.41-.09-.13a8.09,8.09,0,0,1-.46-.73l-.08-.14,2.64-.39a.28.28,0,0,0,.18-.12l2.24-3.93a.25.25,0,0,0,0-.19.28.28,0,0,0-.12-.16l-.42-.23Z"/><polygon class="cls-5" points="63.31 32.74 63.31 43.05 60.99 43.05 60.99 30.67 60.99 29.74 63.31 29.74 63.31 32.74"/><rect class="cls-6" x="58.16" y="30.92" width="2.33" height="12.13"/><rect class="cls-2" x="55.33" y="35.54" width="2.33" height="7.51"/><path class="cls-5" d="M48.52,41.06a7.58,7.58,0,0,1-1.78,7.14l-5.29-5.28v-.37l.23-7.08a6.75,6.75,0,0,1,1.47.23A7.6,7.6,0,0,1,48.52,41.06Z"/><path class="cls-2" d="M41.11,43.29l5.27,5.27a7.54,7.54,0,0,1-5.18,2A7.59,7.59,0,0,1,33.88,45c-.05-.18-.09-.36-.13-.53l4.64-.74Z"/><path class="cls-4" d="M41.19,35.45,41,42.81l-3.56.56L33.69,44a7.42,7.42,0,0,1,0-1.94,7.59,7.59,0,0,1,.94-2.77,7.9,7.9,0,0,1,1.22-1.59,7.43,7.43,0,0,1,.69-.6l.15-.12.07,0c.18-.12.35-.24.54-.35l.26-.15c.19-.11.4-.21.6-.3l.09,0,.12,0a7,7,0,0,1,.84-.29l.19,0c.23-.06.46-.1.69-.14l.24,0h0l.63,0h.19Z"/><path class="cls-7" d="M59.22,69.9H48.11a.25.25,0,0,1,0-.5H59.22a.25.25,0,0,1,0,.5Z"/><path class="cls-7" d="M57.85,71.75H48.11a.25.25,0,0,1,0-.5H63.47a.25.25,0,0,1,0,.5Z"/><path class="cls-7" d="M57.79,73.07a.25.25,0,0,1,.06-.49h.07l3.17.85-3.17.85h-.07a.26.26,0,0,1-.24-.19.24.24,0,0,1,.18-.3l.18,0,1.19-.32Z"/><path class="cls-7" d="M58.93,63.28l2.81-.41,2.58-4.53a.26.26,0,0,1,.34-.09l.59.32L65.6,55l-2.76,2.23.42.23a.28.28,0,0,1,.12.16.25.25,0,0,1,0,.19l-2.24,3.93a.28.28,0,0,1-.18.12l-2.64.39.08.14a8.09,8.09,0,0,0,.46.73Zm-1-8.75a8.73,8.73,0,0,0-.14,6.75,5.05,5.05,0,0,0,.24.53l2.68-.4,2.06-3.6-.53-.28a.23.23,0,0,1-.13-.2.24.24,0,0,1,.09-.22l3.52-2.84a.24.24,0,0,1,.27,0,.23.23,0,0,1,.13.24L65.72,59a.26.26,0,0,1-.14.2.24.24,0,0,1-.23,0l-.72-.39-2.52,4.42a.23.23,0,0,1-.18.12l-2.63.4a8.9,8.9,0,0,0,6.75,3.15,8.73,8.73,0,0,0,5.37-1.84,8.87,8.87,0,0,0,2.83-10.18,8.75,8.75,0,0,0-2.83-3.76A8.92,8.92,0,0,0,66,49.26,8.81,8.81,0,0,0,58,54.53Zm-.61,6.93a9.32,9.32,0,0,1,5.3-12.07,9.44,9.44,0,0,1,9.08,1.33,9.3,9.3,0,0,1-5.68,16.67,9.39,9.39,0,0,1-7.43-3.68,10,10,0,0,1-.94-1.51C57.56,62,57.45,61.71,57.35,61.46Z"/><path class="cls-7" d="M56.68,67.8a.26.26,0,0,1-.26.25H48.11a.25.25,0,0,1,0-.5h8.31A.26.26,0,0,1,56.68,67.8Z"/><path class="cls-7" d="M56,26.78a.25.25,0,0,1,.25.25.26.26,0,0,1-.25.25h-22a.25.25,0,0,1-.25-.25.25.25,0,0,1,.25-.25Z"/><path class="cls-7" d="M63.81,43.05h2.32V33H63.81Zm-.5-13.31H61V43.05h2.32V29.74ZM58.16,43.05h2.33V30.92H58.16Zm-2.83,0h2.33V35.54H55.33Zm2.58.5H55.08a.25.25,0,0,1-.25-.25v-8a.25.25,0,0,1,.25-.25h2.58V30.67a.25.25,0,0,1,.25-.25h2.58v-.93a.25.25,0,0,1,.25-.25h2.82a.25.25,0,0,1,.25.25v3h2.57a.25.25,0,0,1,.25.25V43.3a.25.25,0,0,1-.25.25H57.91Z"/><path class="cls-7" d="M54.67,66a.25.25,0,0,1-.25.25H48.11a.25.25,0,0,1,0-.5h6.31A.25.25,0,0,1,54.67,66Z"/><path class="cls-7" d="M52.46,29.24a.25.25,0,0,1,0,.5H33.92a.25.25,0,0,1,0-.5Z"/><path class="cls-7" d="M48.47,31.71a.25.25,0,0,1,0,.5H33.92a.25.25,0,0,1,0-.5Z"/><path class="cls-7" d="M35.45,56l-.37,1.38a.25.25,0,0,1-.31.17.24.24,0,0,1-.17-.3L35.45,54l.85,3.18a.25.25,0,0,1-.18.3h-.06a.26.26,0,0,1-.25-.18Z"/><path class="cls-7" d="M41.69,35.47l-.23,7.08v.37l5.29,5.28a7.58,7.58,0,0,0-3.58-12.5A6.75,6.75,0,0,0,41.69,35.47ZM33.88,45a7.57,7.57,0,0,0,12.5,3.57l-5.27-5.27-2.72.43-4.64.74C33.79,44.63,33.83,44.81,33.88,45Zm.74-5.74A7.59,7.59,0,0,0,33.68,42a7.42,7.42,0,0,0,0,1.94l3.71-.59L41,42.81l.23-7.36H41l-.63,0h0l-.24,0c-.23,0-.46.08-.69.14l-.19,0a7,7,0,0,0-.84.29l-.12,0-.09,0c-.2.09-.41.19-.6.3l-.26.15c-.19.11-.36.23-.54.35l-.07,0-.15.12a7.43,7.43,0,0,0-.69.6A7.9,7.9,0,0,0,34.62,39.25Zm4.49,11.58a8.1,8.1,0,0,1-5.72-5.72,7.45,7.45,0,0,1-.17-.82s0,0,0,0a7.61,7.61,0,0,1-.1-1.25,6.77,6.77,0,0,1,.07-1v0h0a8,8,0,0,1,.64-2.26c.11-.24.23-.47.36-.7a8.22,8.22,0,0,1,1.29-1.69,8.54,8.54,0,0,1,.74-.65l.17-.12.07,0a5.65,5.65,0,0,1,.57-.38L37.3,36c.22-.12.43-.22.65-.32l.08,0,.14-.07a7.91,7.91,0,0,1,.9-.3l.12,0,.08,0A6,6,0,0,1,40,35l.25,0h0c.26,0,.48,0,.71,0h.27a.18.18,0,0,1,.1,0v-.05h.07l0,0a8.08,8.08,0,1,1-2.35,15.87Z"/><path class="cls-7" d="M69.64,73.2,76.5,92.9a1.55,1.55,0,0,0,2,.89l2.54-1a1.6,1.6,0,0,0,.88-.85,1.51,1.51,0,0,0,0-1.16L73.62,71.65l-.06,0-3.85,1.5Zm-2-2.88.74,1.91a.85.85,0,0,0,.8.53h.07a.6.6,0,0,0,.25,0l3.84-1.5a.55.55,0,0,0,.19-.12.83.83,0,0,0,.3-1l-.74-1.91c-.24.18-.5.32-.76.48s-.29.19-.44.27a12.58,12.58,0,0,1-1.39.66,14.14,14.14,0,0,1-1.48.46c-.16,0-.33.06-.5.09S68,70.28,67.67,70.32Zm-6-23.3A11.87,11.87,0,0,0,66,69.93a10.36,10.36,0,0,0,1.25-.07,11.8,11.8,0,0,0,3.06-.73,11.63,11.63,0,0,0,2.74-1.53,11.83,11.83,0,0,0-1.63-20.06l-.09,0h0v0A12.11,12.11,0,0,0,66,46.21,11.62,11.62,0,0,0,61.72,47ZM29.62,77.94H70.76l-1.64-4.7a1.33,1.33,0,0,1-1.18-.83l-.79-2c-.37,0-.74.06-1.11.06a11.79,11.79,0,0,1-2.38-.24,12.52,12.52,0,0,1-8.76-6.73l-2.57-.82-2.09,2L46,62.18l-1.78,7-4.8-.77L36,73.19H57.85a.25.25,0,0,1,.25.25.25.25,0,0,1-.15.23l-.1,0H35.2V57.48a.25.25,0,0,1,.5,0V72.81l3.51-5,4.65.75,1.84-7.16L50.17,64l2-1.94,2.43.77-.12-.28a12.38,12.38,0,0,1,7-16,12.48,12.48,0,0,1,9.79.38V24.07H29.62V77.94Zm-.5-50-4.44.33,3.75,50.2L28.69,82l41.59-3.1,0-.49H29.37a.25.25,0,0,1-.25-.25Zm-.91,54.34L24.16,28.1a.26.26,0,0,1,.23-.27l4.73-.35V23.82a.25.25,0,0,1,.25-.25H71.58a.25.25,0,0,1,.25.25V47.18a12.32,12.32,0,0,1,1.71,20.7l.79,2a1.32,1.32,0,0,1-.3,1.4l8.34,19.27a2,2,0,0,1,0,1.56,2.09,2.09,0,0,1-1.16,1.12l-2.54,1a2.18,2.18,0,0,1-.76.14A2,2,0,0,1,76,93.06l-5.1-14.62h-.18l0,.7a.25.25,0,0,1-.23.27L28.48,82.55h0A.25.25,0,0,1,28.21,82.32Z"/></svg>