<?xml version="1.0" encoding="utf-8"?>
<!-- Generator: Adobe Illustrator 21.1.0, SVG Export Plug-In . SVG Version: 6.00 Build 0)  -->
<svg version="1.1" id="Слой_1" xmlns="http://www.w3.org/2000/svg" xmlns:xlink="http://www.w3.org/1999/xlink" x="0px" y="0px"
	 viewBox="0 0 129.9 43.5" style="enable-background:new 0 0 129.9 43.5;" xml:space="preserve">
<style type="text/css">
	.st0{fill:#D5AE75;}
	.st1{fill:#E6D4B6;}
	.st2{fill:#FFFFFF;}
	.st3{fill:#FFFFFF;}
</style>
<g>
	<g>
		<g>
			<path class="st0" d="M39.6,6.7h-3.1h-3.8H21.3c-1.9,0-3.5,1.2-4.2,2.9L10,29.1C9.4,30.8,7.7,32,5.9,32H9h3.3h12
				c1.9,0,3.5-1.2,4.2-2.9l7.1-19.5C36.1,7.8,37.8,6.7,39.6,6.7z"/>
		</g>
		<g>
			<path class="st1" d="M15.8,9.1c0.8-2.3,3-3.8,5.5-3.8h1.8l1.1-2.9C24.7,0.9,26.1,0,27.6,0H25h-3.1h-9.3c-1.5,0-2.9,0.9-3.4,2.4
				l-5.8,16c-0.5,1.4-1.9,2.4-3.4,2.4h2.5h2.7h6.4L15.8,9.1z"/>
		</g>
		<g>
			<g>
				<g>
					<g>
						<path class="st2" d="M44.7,15.4h0.5c0.4,0,0.7,0.1,1,0.2c0.3,0.1,0.6,0.3,0.8,0.5c0.2,0.2,0.4,0.4,0.5,0.7
							c0.1,0.3,0.2,0.6,0.2,1c0,0.4-0.1,0.7-0.2,1c-0.1,0.3-0.3,0.5-0.6,0.7c-0.2,0.2-0.5,0.4-0.8,0.5c-0.3,0.1-0.6,0.2-1,0.2h-0.5
							V21h-1.4v-0.8h-0.5c-0.4,0-0.7-0.1-1-0.2c-0.3-0.1-0.6-0.3-0.8-0.5c-0.2-0.2-0.4-0.4-0.5-0.7c-0.1-0.3-0.2-0.6-0.2-1
							c0-0.4,0.1-0.7,0.2-1c0.1-0.3,0.3-0.5,0.6-0.7c0.2-0.2,0.5-0.4,0.8-0.5c0.3-0.1,0.6-0.2,1-0.2h0.5v-0.8h1.4V15.4z M42.8,16.6
							c-0.4,0-0.7,0.1-0.9,0.3c-0.2,0.2-0.3,0.5-0.3,0.9c0,0.4,0.1,0.6,0.3,0.8c0.2,0.2,0.5,0.3,0.9,0.3h0.5v-2.3H42.8z M45.2,19
							c0.4,0,0.7-0.1,0.9-0.3c0.2-0.2,0.3-0.5,0.3-0.9c0-0.4-0.1-0.6-0.3-0.8c-0.2-0.2-0.5-0.3-0.9-0.3h-0.5V19H45.2z"/>
					</g>
				</g>
				<g>
					<g>
						<path class="st2" d="M53.6,14.8c0.4,0.2,0.8,0.4,1,0.7c0.3,0.3,0.5,0.6,0.7,1c0.2,0.4,0.2,0.8,0.2,1.3c0,0.4-0.1,0.9-0.2,1.3
							c-0.2,0.4-0.4,0.7-0.7,1c-0.3,0.3-0.6,0.5-1,0.7c-0.4,0.2-0.9,0.3-1.3,0.3c-0.5,0-0.9-0.1-1.3-0.2c-0.4-0.2-0.8-0.4-1-0.7
							c-0.3-0.3-0.5-0.6-0.7-1c-0.2-0.4-0.2-0.8-0.2-1.3c0-0.4,0.1-0.9,0.2-1.3c0.2-0.4,0.4-0.7,0.7-1c0.3-0.3,0.6-0.5,1-0.7
							c0.4-0.2,0.8-0.3,1.3-0.3C52.8,14.6,53.2,14.7,53.6,14.8z M51.5,16c-0.2,0.1-0.4,0.2-0.6,0.4c-0.2,0.2-0.3,0.4-0.4,0.6
							c-0.1,0.2-0.1,0.5-0.1,0.8c0,0.3,0,0.5,0.1,0.8c0.1,0.2,0.2,0.5,0.4,0.6c0.2,0.2,0.4,0.3,0.6,0.4c0.2,0.1,0.5,0.2,0.8,0.2
							c0.3,0,0.6-0.1,0.8-0.2c0.2-0.1,0.4-0.2,0.6-0.4c0.2-0.2,0.3-0.4,0.4-0.6c0.1-0.2,0.1-0.5,0.1-0.8c0-0.3,0-0.6-0.1-0.8
							c-0.1-0.2-0.2-0.5-0.4-0.6c-0.2-0.2-0.4-0.3-0.6-0.4c-0.2-0.1-0.5-0.1-0.8-0.1C52,15.8,51.7,15.9,51.5,16z"/>
					</g>
				</g>
				<g>
					<g>
						<path class="st2" d="M58.4,17.2h2.7v-2.4h1.4V21h-1.4v-2.5h-2.7V21H57v-6.2h1.4V17.2z"/>
					</g>
				</g>
				<g>
					<g>
						<path class="st2" d="M70,19.7h0.9v0.4l-0.1,2.2h-1.3L69.5,21h-4.2l-0.1,1.3h-1.3l-0.1-2.2v-0.4h0.3c0.1,0,0.3,0,0.4-0.1
							c0.1-0.1,0.2-0.2,0.3-0.4c0.2-0.4,0.3-0.9,0.4-1.4c0.1-0.6,0.1-1.2,0.1-2v-1H70V19.7z M66.5,18.2c-0.1,0.6-0.2,1.1-0.4,1.5
							h2.5V16h-1.9C66.7,16.9,66.6,17.6,66.5,18.2z"/>
					</g>
				</g>
				<g>
					<g>
						<path class="st2" d="M46,32.1h-1.4v-4.9H42v4.9h-1.4v-6.2H46V32.1z"/>
					</g>
				</g>
				<g>
					<g>
						<path class="st2" d="M51.5,26.1c0.3,0.1,0.6,0.3,0.8,0.5c0.2,0.2,0.4,0.4,0.5,0.7c0.1,0.3,0.2,0.6,0.2,0.9
							c0,0.4-0.1,0.7-0.2,1c-0.1,0.3-0.3,0.5-0.5,0.7c-0.2,0.2-0.5,0.3-0.8,0.4c-0.3,0.1-0.7,0.2-1,0.2h-1.3v1.7h-1.4v-6.2h2.8
							C50.9,25.9,51.2,26,51.5,26.1z M50.4,29.2c0.4,0,0.7-0.1,0.9-0.3c0.2-0.2,0.3-0.4,0.3-0.8c0-0.3-0.1-0.6-0.3-0.7
							c-0.2-0.2-0.5-0.3-0.9-0.3h-1.3v2H50.4z"/>
					</g>
				</g>
				<g>
					<g>
						<path class="st2" d="M59,27.2h-3.3v1.2h2.9v1.2h-2.9v1.3h3.4v1.3h-4.8v-6.2H59V27.2z"/>
					</g>
				</g>
				<g>
					<g>
						<path class="st2" d="M63.8,28.2c0.1-0.1,0.2-0.3,0.2-0.4c0-0.2-0.1-0.4-0.2-0.5C63.6,27.1,63.3,27,63,27
							c-0.6,0-1.1,0.2-1.6,0.6l-0.7-1c0.3-0.3,0.7-0.5,1.1-0.7c0.4-0.1,0.8-0.2,1.3-0.2c0.4,0,0.7,0,1,0.1c0.3,0.1,0.5,0.2,0.7,0.4
							c0.2,0.2,0.4,0.3,0.5,0.6c0.1,0.2,0.2,0.5,0.2,0.7c0,0.3-0.1,0.5-0.2,0.7c-0.1,0.2-0.3,0.4-0.5,0.5v0.1
							c0.3,0.1,0.5,0.3,0.7,0.5c0.2,0.2,0.3,0.5,0.3,0.9c0,0.3-0.1,0.6-0.2,0.8c-0.1,0.2-0.3,0.5-0.5,0.6c-0.2,0.2-0.5,0.3-0.8,0.4
							c-0.3,0.1-0.7,0.2-1.2,0.2c-0.3,0-0.5,0-0.8-0.1c-0.2,0-0.5-0.1-0.7-0.2c-0.2-0.1-0.4-0.2-0.6-0.3c-0.2-0.1-0.4-0.3-0.6-0.4
							l0.7-1c0.3,0.3,0.6,0.4,1,0.5c0.3,0.1,0.7,0.2,1.1,0.2c0.4,0,0.7-0.1,0.9-0.2c0.2-0.2,0.3-0.4,0.3-0.6c0-0.4-0.3-0.7-0.8-0.7
							h-1.6v-1.2h1.4C63.5,28.3,63.7,28.3,63.8,28.2z"/>
					</g>
				</g>
				<g>
					<g>
						<path class="st2" d="M68.5,30.1l3-4.2h1.2v6.2h-1.4v-3.9l-2.9,3.9h-1.4v-6.2h1.4V30.1z"/>
					</g>
				</g>
				<g>
					<g>
						<path class="st2" d="M80.2,30.9h0.9v0.4L81,33.5h-1.3l-0.1-1.3h-4.2l-0.1,1.3h-1.3L74,31.3v-0.4h0.3c0.1,0,0.3,0,0.4-0.1
							c0.1-0.1,0.2-0.2,0.3-0.4c0.2-0.4,0.3-0.9,0.4-1.4c0.1-0.6,0.1-1.2,0.1-2v-1h4.7V30.9z M76.7,29.4c-0.1,0.6-0.2,1.1-0.4,1.5
							h2.5v-3.7h-1.9C76.8,28,76.8,28.8,76.7,29.4z"/>
					</g>
				</g>
				<g>
					<g>
						<path class="st2" d="M87.1,27.2h-3.3v1.2h2.9v1.2h-2.9v1.3h3.4v1.3h-4.8v-6.2h4.7V27.2z"/>
					</g>
				</g>
				<g>
					<g>
						<path class="st2" d="M90.1,28.3h2.7v-2.4h1.4v6.2h-1.4v-2.5h-2.7v2.5h-1.4v-6.2h1.4V28.3z"/>
					</g>
				</g>
				<g>
					<g>
						<path class="st2" d="M101.2,27.2h-2.1v5h-1.4v-5h-2.1v-1.3h5.7V27.2z"/>
					</g>
				</g>
				<g>
					<g>
						<path class="st2" d="M106.4,27.2c-0.3-0.1-0.6-0.2-0.9-0.2c-0.3,0-0.6,0-0.8,0.1c-0.2,0.1-0.5,0.2-0.6,0.4
							c-0.2,0.2-0.3,0.4-0.4,0.6c-0.1,0.2-0.1,0.5-0.1,0.8c0,0.3,0,0.6,0.1,0.8c0.1,0.2,0.2,0.4,0.4,0.6c0.2,0.2,0.4,0.3,0.6,0.4
							c0.2,0.1,0.5,0.1,0.8,0.1c0.4,0,0.7-0.1,1-0.2c0.3-0.1,0.6-0.3,0.8-0.5l0.8,1c-0.7,0.7-1.6,1-2.7,1c-0.5,0-0.9-0.1-1.3-0.2
							c-0.4-0.2-0.7-0.4-1-0.7c-0.3-0.3-0.5-0.6-0.7-1c-0.2-0.4-0.2-0.8-0.2-1.3c0-0.4,0.1-0.9,0.2-1.3c0.2-0.4,0.4-0.7,0.7-1
							c0.3-0.3,0.7-0.5,1.1-0.7c0.4-0.2,0.9-0.3,1.4-0.3c0.5,0,0.9,0.1,1.3,0.2c0.4,0.1,0.8,0.4,1.1,0.6l-0.8,1
							C107,27.5,106.7,27.3,106.4,27.2z"/>
					</g>
				</g>
				<g>
					<g>
						<path class="st2" d="M110.8,28.3l0.7-0.1l1.8-2.3h1.7l-2.3,2.9l2.5,3.3h-1.8l-1.9-2.7h-0.7v2.7h-1.4v-6.2h1.4V28.3z"/>
					</g>
				</g>
				<g>
					<g>
						<path class="st2" d="M117.8,30.1l3-4.2h1.2v6.2h-1.4v-3.9l-2.9,3.9h-1.4v-6.2h1.4V30.1z"/>
					</g>
				</g>
				<g>
					<g>
						<path class="st2" d="M126.5,28.1L126.5,28.1l1.3-2.2h1.7l-2,3.1l2.2,3.2h-1.8l-1.4-2.4h-0.1l-1.4,2.4h-1.8l2.2-3.2l-2-3h1.7
							L126.5,28.1z"/>
					</g>
				</g>
				<g>
					<g>
						<path class="st2" d="M45.3,38.4H42v5h-1.4v-6.2h4.7V38.4z"/>
					</g>
				</g>
				<g>
					<g>
						<path class="st2" d="M50.3,37.3c0.3,0.1,0.6,0.3,0.8,0.5c0.2,0.2,0.4,0.4,0.5,0.7c0.1,0.3,0.2,0.6,0.2,0.9
							c0,0.4-0.1,0.7-0.2,1c-0.1,0.3-0.3,0.5-0.5,0.7c-0.2,0.2-0.5,0.3-0.8,0.4c-0.3,0.1-0.7,0.2-1,0.2h-1.3v1.7h-1.4v-6.2h2.8
							C49.7,37.1,50,37.1,50.3,37.3z M49.2,40.4c0.4,0,0.7-0.1,0.9-0.3c0.2-0.2,0.3-0.4,0.3-0.8c0-0.3-0.1-0.6-0.3-0.7
							c-0.2-0.2-0.5-0.3-0.9-0.3h-1.3v2H49.2z"/>
					</g>
				</g>
				<g>
					<g>
						<path class="st2" d="M58.9,43.3h-1.5l-0.5-1.2h-2.7l-0.5,1.2h-1.5l2.6-6.2h1.5L58.9,43.3z M56.4,40.9l-0.8-2.4h-0.1l-0.8,2.4
							H56.4z"/>
					</g>
				</g>
				<g>
					<g>
						<path class="st2" d="M61.6,39.5h2.7v-2.4h1.4v6.2h-1.4v-2.5h-2.7v2.5h-1.4v-6.2h1.4V39.5z"/>
					</g>
				</g>
				<g>
					<g>
						<path class="st2" d="M72.7,38.4h-2.1v5h-1.4v-5H67v-1.3h5.7V38.4z"/>
					</g>
				</g>
				<g>
					<g>
						<path class="st2" d="M78.2,37.2c0.4,0.2,0.8,0.4,1,0.7c0.3,0.3,0.5,0.6,0.7,1c0.2,0.4,0.2,0.8,0.2,1.3c0,0.4-0.1,0.9-0.2,1.3
							c-0.2,0.4-0.4,0.7-0.7,1c-0.3,0.3-0.6,0.5-1,0.7c-0.4,0.2-0.9,0.3-1.3,0.3c-0.5,0-0.9-0.1-1.3-0.2c-0.4-0.2-0.8-0.4-1-0.7
							c-0.3-0.3-0.5-0.6-0.7-1c-0.2-0.4-0.2-0.8-0.2-1.3c0-0.4,0.1-0.9,0.2-1.3c0.2-0.4,0.4-0.7,0.7-1c0.3-0.3,0.6-0.5,1-0.7
							C76,37,76.4,37,76.9,37C77.4,37,77.8,37,78.2,37.2z M76.1,38.4c-0.2,0.1-0.4,0.2-0.6,0.4c-0.2,0.2-0.3,0.4-0.4,0.6
							C75,39.7,75,39.9,75,40.2c0,0.3,0,0.5,0.1,0.8c0.1,0.2,0.2,0.5,0.4,0.6c0.2,0.2,0.4,0.3,0.6,0.4c0.2,0.1,0.5,0.2,0.8,0.2
							c0.3,0,0.6-0.1,0.8-0.2c0.2-0.1,0.4-0.3,0.6-0.4c0.2-0.2,0.3-0.4,0.4-0.6c0.1-0.2,0.1-0.5,0.1-0.8c0-0.3,0-0.6-0.1-0.8
							c-0.1-0.2-0.2-0.5-0.4-0.6c-0.2-0.2-0.4-0.3-0.6-0.4c-0.2-0.1-0.5-0.1-0.8-0.1C76.6,38.2,76.3,38.3,76.1,38.4z"/>
					</g>
				</g>
				<g>
					<g>
						<path class="st2" d="M86,37.5c0.4,0.3,0.6,0.7,0.6,1.2c0,0.3-0.1,0.5-0.2,0.7c-0.1,0.2-0.3,0.4-0.4,0.5V40
							c0.3,0.1,0.5,0.3,0.7,0.5c0.2,0.3,0.3,0.6,0.3,0.9c0,0.3,0,0.5-0.1,0.7c-0.1,0.2-0.2,0.4-0.4,0.6c-0.2,0.2-0.4,0.3-0.7,0.4
							c-0.3,0.1-0.6,0.1-1,0.1h-3v-6.2h2.8C85.1,37.1,85.6,37.2,86,37.5z M84.4,39.5c0.2,0,0.4-0.1,0.6-0.2c0.1-0.1,0.2-0.3,0.2-0.5
							c0-0.4-0.3-0.6-0.8-0.6H83v1.3H84.4z M84.6,42.1c0.6,0,0.9-0.2,0.9-0.7c0-0.2-0.1-0.4-0.2-0.5c-0.2-0.1-0.4-0.2-0.7-0.2H83
							v1.5H84.6z"/>
					</g>
				</g>
			</g>
		</g>
	</g>
</g>
<g>
	<g>
		<g>
			<path class="st0" d="M39.6,167.3h-3.1h-3.8H21.3c-1.9,0-3.5,1.2-4.2,2.9L10,189.8c-0.6,1.7-2.3,2.9-4.2,2.9H9h3.3h12
				c1.9,0,3.5-1.2,4.2-2.9l7.1-19.5C36.1,168.5,37.8,167.3,39.6,167.3z"/>
		</g>
		<g>
			<path class="st1" d="M15.8,169.8c0.8-2.3,3-3.8,5.5-3.8h1.8l1.1-2.9c0.5-1.4,1.9-2.4,3.4-2.4H25h-3.1h-9.3
				c-1.5,0-2.9,0.9-3.4,2.4l-5.8,16c-0.5,1.4-1.9,2.4-3.4,2.4h2.5h2.7h6.4L15.8,169.8z"/>
		</g>
		<g>
			<g>
				<g>
					<g>
						<path class="st3" d="M44.7,176.1h0.5c0.4,0,0.7,0.1,1,0.2c0.3,0.1,0.6,0.3,0.8,0.5c0.2,0.2,0.4,0.4,0.5,0.7
							c0.1,0.3,0.2,0.6,0.2,1c0,0.4-0.1,0.7-0.2,1c-0.1,0.3-0.3,0.5-0.6,0.7c-0.2,0.2-0.5,0.4-0.8,0.5c-0.3,0.1-0.6,0.2-1,0.2h-0.5
							v0.8h-1.4v-0.8h-0.5c-0.4,0-0.7-0.1-1-0.2c-0.3-0.1-0.6-0.3-0.8-0.5c-0.2-0.2-0.4-0.4-0.5-0.7c-0.1-0.3-0.2-0.6-0.2-1
							c0-0.4,0.1-0.7,0.2-1c0.1-0.3,0.3-0.5,0.6-0.7c0.2-0.2,0.5-0.4,0.8-0.5c0.3-0.1,0.6-0.2,1-0.2h0.5v-0.8h1.4V176.1z
							 M42.8,177.3c-0.4,0-0.7,0.1-0.9,0.3c-0.2,0.2-0.3,0.5-0.3,0.9c0,0.4,0.1,0.6,0.3,0.8c0.2,0.2,0.5,0.3,0.9,0.3h0.5v-2.3H42.8z
							 M45.2,179.6c0.4,0,0.7-0.1,0.9-0.3c0.2-0.2,0.3-0.5,0.3-0.9c0-0.4-0.1-0.6-0.3-0.8c-0.2-0.2-0.5-0.3-0.9-0.3h-0.5v2.3H45.2z"
							/>
					</g>
				</g>
				<g>
					<g>
						<path class="st3" d="M53.6,175.5c0.4,0.2,0.8,0.4,1,0.7c0.3,0.3,0.5,0.6,0.7,1c0.2,0.4,0.2,0.8,0.2,1.3c0,0.4-0.1,0.9-0.2,1.3
							c-0.2,0.4-0.4,0.7-0.7,1c-0.3,0.3-0.6,0.5-1,0.7c-0.4,0.2-0.9,0.3-1.3,0.3c-0.5,0-0.9-0.1-1.3-0.2c-0.4-0.2-0.8-0.4-1-0.7
							c-0.3-0.3-0.5-0.6-0.7-1c-0.2-0.4-0.2-0.8-0.2-1.3c0-0.4,0.1-0.9,0.2-1.3c0.2-0.4,0.4-0.7,0.7-1c0.3-0.3,0.6-0.5,1-0.7
							c0.4-0.2,0.8-0.3,1.3-0.3C52.8,175.3,53.2,175.3,53.6,175.5z M51.5,176.7c-0.2,0.1-0.4,0.2-0.6,0.4c-0.2,0.2-0.3,0.4-0.4,0.6
							c-0.1,0.2-0.1,0.5-0.1,0.8c0,0.3,0,0.5,0.1,0.8c0.1,0.2,0.2,0.5,0.4,0.6c0.2,0.2,0.4,0.3,0.6,0.4c0.2,0.1,0.5,0.2,0.8,0.2
							c0.3,0,0.6-0.1,0.8-0.2c0.2-0.1,0.4-0.2,0.6-0.4c0.2-0.2,0.3-0.4,0.4-0.6c0.1-0.2,0.1-0.5,0.1-0.8c0-0.3,0-0.6-0.1-0.8
							c-0.1-0.2-0.2-0.5-0.4-0.6c-0.2-0.2-0.4-0.3-0.6-0.4c-0.2-0.1-0.5-0.1-0.8-0.1C52,176.5,51.7,176.6,51.5,176.7z"/>
					</g>
				</g>
				<g>
					<g>
						<path class="st3" d="M58.4,177.8h2.7v-2.4h1.4v6.2h-1.4v-2.5h-2.7v2.5H57v-6.2h1.4V177.8z"/>
					</g>
				</g>
				<g>
					<g>
						<path class="st3" d="M70,180.4h0.9v0.4l-0.1,2.2h-1.3l-0.1-1.3h-4.2l-0.1,1.3h-1.3l-0.1-2.2v-0.4h0.3c0.1,0,0.3,0,0.4-0.1
							c0.1-0.1,0.2-0.2,0.3-0.4c0.2-0.4,0.3-0.9,0.4-1.4c0.1-0.6,0.1-1.2,0.1-2v-1H70V180.4z M66.5,178.9c-0.1,0.6-0.2,1.1-0.4,1.5
							h2.5v-3.7h-1.9C66.7,177.5,66.6,178.3,66.5,178.9z"/>
					</g>
				</g>
				<g>
					<g>
						<path class="st3" d="M46,192.8h-1.4v-4.9H42v4.9h-1.4v-6.2H46V192.8z"/>
					</g>
				</g>
				<g>
					<g>
						<path class="st3" d="M51.5,186.7c0.3,0.1,0.6,0.3,0.8,0.5c0.2,0.2,0.4,0.4,0.5,0.7c0.1,0.3,0.2,0.6,0.2,0.9
							c0,0.4-0.1,0.7-0.2,1c-0.1,0.3-0.3,0.5-0.5,0.7c-0.2,0.2-0.5,0.3-0.8,0.4c-0.3,0.1-0.7,0.2-1,0.2h-1.3v1.7h-1.4v-6.2h2.8
							C50.9,186.6,51.2,186.6,51.5,186.7z M50.4,189.9c0.4,0,0.7-0.1,0.9-0.3c0.2-0.2,0.3-0.4,0.3-0.8c0-0.3-0.1-0.6-0.3-0.7
							c-0.2-0.2-0.5-0.3-0.9-0.3h-1.3v2H50.4z"/>
					</g>
				</g>
				<g>
					<g>
						<path class="st3" d="M59,187.8h-3.3v1.2h2.9v1.2h-2.9v1.3h3.4v1.3h-4.8v-6.2H59V187.8z"/>
					</g>
				</g>
				<g>
					<g>
						<path class="st3" d="M63.8,188.8c0.1-0.1,0.2-0.3,0.2-0.4c0-0.2-0.1-0.4-0.2-0.5c-0.2-0.1-0.4-0.2-0.8-0.2
							c-0.6,0-1.1,0.2-1.6,0.6l-0.7-1c0.3-0.3,0.7-0.5,1.1-0.7c0.4-0.1,0.8-0.2,1.3-0.2c0.4,0,0.7,0,1,0.1c0.3,0.1,0.5,0.2,0.7,0.4
							c0.2,0.2,0.4,0.3,0.5,0.6c0.1,0.2,0.2,0.5,0.2,0.7c0,0.3-0.1,0.5-0.2,0.7c-0.1,0.2-0.3,0.4-0.5,0.5v0.1
							c0.3,0.1,0.5,0.3,0.7,0.5c0.2,0.2,0.3,0.5,0.3,0.9c0,0.3-0.1,0.6-0.2,0.8c-0.1,0.2-0.3,0.5-0.5,0.6c-0.2,0.2-0.5,0.3-0.8,0.4
							c-0.3,0.1-0.7,0.2-1.2,0.2c-0.3,0-0.5,0-0.8-0.1c-0.2,0-0.5-0.1-0.7-0.2c-0.2-0.1-0.4-0.2-0.6-0.3c-0.2-0.1-0.4-0.3-0.6-0.4
							l0.7-1c0.3,0.3,0.6,0.4,1,0.5c0.3,0.1,0.7,0.2,1.1,0.2c0.4,0,0.7-0.1,0.9-0.2c0.2-0.2,0.3-0.4,0.3-0.6c0-0.4-0.3-0.7-0.8-0.7
							h-1.6V189h1.4C63.5,189,63.7,189,63.8,188.8z"/>
					</g>
				</g>
				<g>
					<g>
						<path class="st3" d="M68.5,190.7l3-4.2h1.2v6.2h-1.4v-3.9l-2.9,3.9h-1.4v-6.2h1.4V190.7z"/>
					</g>
				</g>
				<g>
					<g>
						<path class="st3" d="M80.2,191.6h0.9v0.4l-0.1,2.2h-1.3l-0.1-1.3h-4.2l-0.1,1.3h-1.3l-0.1-2.2v-0.4h0.3c0.1,0,0.3,0,0.4-0.1
							c0.1-0.1,0.2-0.2,0.3-0.4c0.2-0.4,0.3-0.9,0.4-1.4c0.1-0.6,0.1-1.2,0.1-2v-1h4.7V191.6z M76.7,190.1c-0.1,0.6-0.2,1.1-0.4,1.5
							h2.5v-3.7h-1.9C76.8,188.7,76.8,189.5,76.7,190.1z"/>
					</g>
				</g>
				<g>
					<g>
						<path class="st3" d="M87.1,187.8h-3.3v1.2h2.9v1.2h-2.9v1.3h3.4v1.3h-4.8v-6.2h4.7V187.8z"/>
					</g>
				</g>
				<g>
					<g>
						<path class="st3" d="M90.1,189h2.7v-2.4h1.4v6.2h-1.4v-2.5h-2.7v2.5h-1.4v-6.2h1.4V189z"/>
					</g>
				</g>
				<g>
					<g>
						<path class="st3" d="M101.2,187.8h-2.1v5h-1.4v-5h-2.1v-1.3h5.7V187.8z"/>
					</g>
				</g>
				<g>
					<g>
						<path class="st3" d="M106.4,187.9c-0.3-0.1-0.6-0.2-0.9-0.2c-0.3,0-0.6,0-0.8,0.1c-0.2,0.1-0.5,0.2-0.6,0.4
							c-0.2,0.2-0.3,0.4-0.4,0.6c-0.1,0.2-0.1,0.5-0.1,0.8c0,0.3,0,0.6,0.1,0.8c0.1,0.2,0.2,0.4,0.4,0.6c0.2,0.2,0.4,0.3,0.6,0.4
							c0.2,0.1,0.5,0.1,0.8,0.1c0.4,0,0.7-0.1,1-0.2c0.3-0.1,0.6-0.3,0.8-0.5l0.8,1c-0.7,0.7-1.6,1-2.7,1c-0.5,0-0.9-0.1-1.3-0.2
							c-0.4-0.2-0.7-0.4-1-0.7c-0.3-0.3-0.5-0.6-0.7-1c-0.2-0.4-0.2-0.8-0.2-1.3c0-0.4,0.1-0.9,0.2-1.3c0.2-0.4,0.4-0.7,0.7-1
							c0.3-0.3,0.7-0.5,1.1-0.7c0.4-0.2,0.9-0.3,1.4-0.3c0.5,0,0.9,0.1,1.3,0.2c0.4,0.1,0.8,0.4,1.1,0.6l-0.8,1
							C107,188.1,106.7,188,106.4,187.9z"/>
					</g>
				</g>
				<g>
					<g>
						<path class="st3" d="M110.8,189l0.7-0.1l1.8-2.3h1.7l-2.3,2.9l2.5,3.3h-1.8l-1.9-2.7h-0.7v2.7h-1.4v-6.2h1.4V189z"/>
					</g>
				</g>
				<g>
					<g>
						<path class="st3" d="M117.8,190.7l3-4.2h1.2v6.2h-1.4v-3.9l-2.9,3.9h-1.4v-6.2h1.4V190.7z"/>
					</g>
				</g>
				<g>
					<g>
						<path class="st3" d="M126.5,188.8L126.5,188.8l1.3-2.2h1.7l-2,3.1l2.2,3.2h-1.8l-1.4-2.4h-0.1l-1.4,2.4h-1.8l2.2-3.2l-2-3h1.7
							L126.5,188.8z"/>
					</g>
				</g>
				<g>
					<g>
						<path class="st3" d="M45.3,199H42v5h-1.4v-6.2h4.7V199z"/>
					</g>
				</g>
				<g>
					<g>
						<path class="st3" d="M50.3,197.9c0.3,0.1,0.6,0.3,0.8,0.5c0.2,0.2,0.4,0.4,0.5,0.7c0.1,0.3,0.2,0.6,0.2,0.9
							c0,0.4-0.1,0.7-0.2,1c-0.1,0.3-0.3,0.5-0.5,0.7c-0.2,0.2-0.5,0.3-0.8,0.4c-0.3,0.1-0.7,0.2-1,0.2h-1.3v1.7h-1.4v-6.2h2.8
							C49.7,197.8,50,197.8,50.3,197.9z M49.2,201.1c0.4,0,0.7-0.1,0.9-0.3c0.2-0.2,0.3-0.4,0.3-0.8c0-0.3-0.1-0.6-0.3-0.7
							c-0.2-0.2-0.5-0.3-0.9-0.3h-1.3v2H49.2z"/>
					</g>
				</g>
				<g>
					<g>
						<path class="st3" d="M58.9,204h-1.5l-0.5-1.2h-2.7l-0.5,1.2h-1.5l2.6-6.2h1.5L58.9,204z M56.4,201.5l-0.8-2.4h-0.1l-0.8,2.4
							H56.4z"/>
					</g>
				</g>
				<g>
					<g>
						<path class="st3" d="M61.6,200.2h2.7v-2.4h1.4v6.2h-1.4v-2.5h-2.7v2.5h-1.4v-6.2h1.4V200.2z"/>
					</g>
				</g>
				<g>
					<g>
						<path class="st3" d="M72.7,199h-2.1v5h-1.4v-5H67v-1.3h5.7V199z"/>
					</g>
				</g>
				<g>
					<g>
						<path class="st3" d="M78.2,197.9c0.4,0.2,0.8,0.4,1,0.7c0.3,0.3,0.5,0.6,0.7,1c0.2,0.4,0.2,0.8,0.2,1.3c0,0.4-0.1,0.9-0.2,1.3
							c-0.2,0.4-0.4,0.7-0.7,1c-0.3,0.3-0.6,0.5-1,0.7c-0.4,0.2-0.9,0.3-1.3,0.3c-0.5,0-0.9-0.1-1.3-0.2c-0.4-0.2-0.8-0.4-1-0.7
							c-0.3-0.3-0.5-0.6-0.7-1c-0.2-0.4-0.2-0.8-0.2-1.3c0-0.4,0.1-0.9,0.2-1.3c0.2-0.4,0.4-0.7,0.7-1c0.3-0.3,0.6-0.5,1-0.7
							c0.4-0.2,0.8-0.3,1.3-0.3C77.4,197.6,77.8,197.7,78.2,197.9z M76.1,199c-0.2,0.1-0.4,0.2-0.6,0.4c-0.2,0.2-0.3,0.4-0.4,0.6
							c-0.1,0.2-0.1,0.5-0.1,0.8s0,0.5,0.1,0.8c0.1,0.2,0.2,0.5,0.4,0.6c0.2,0.2,0.4,0.3,0.6,0.4c0.2,0.1,0.5,0.2,0.8,0.2
							c0.3,0,0.6-0.1,0.8-0.2c0.2-0.1,0.4-0.3,0.6-0.4c0.2-0.2,0.3-0.4,0.4-0.6c0.1-0.2,0.1-0.5,0.1-0.8c0-0.3,0-0.6-0.1-0.8
							c-0.1-0.2-0.2-0.5-0.4-0.6c-0.2-0.2-0.4-0.3-0.6-0.4c-0.2-0.1-0.5-0.1-0.8-0.1C76.6,198.9,76.3,198.9,76.1,199z"/>
					</g>
				</g>
				<g>
					<g>
						<path class="st3" d="M86,198.2c0.4,0.3,0.6,0.7,0.6,1.2c0,0.3-0.1,0.5-0.2,0.7c-0.1,0.2-0.3,0.4-0.4,0.5v0.1
							c0.3,0.1,0.5,0.3,0.7,0.5c0.2,0.3,0.3,0.6,0.3,0.9c0,0.3,0,0.5-0.1,0.7c-0.1,0.2-0.2,0.4-0.4,0.6c-0.2,0.2-0.4,0.3-0.7,0.4
							c-0.3,0.1-0.6,0.1-1,0.1h-3v-6.2h2.8C85.1,197.8,85.6,197.9,86,198.2z M84.4,200.2c0.2,0,0.4-0.1,0.6-0.2
							c0.1-0.1,0.2-0.3,0.2-0.5c0-0.4-0.3-0.6-0.8-0.6H83v1.3H84.4z M84.6,202.8c0.6,0,0.9-0.2,0.9-0.7c0-0.2-0.1-0.4-0.2-0.5
							c-0.2-0.1-0.4-0.2-0.7-0.2H83v1.5H84.6z"/>
					</g>
				</g>
			</g>
		</g>
	</g>
</g>
</svg>
