<svg width="642" height="625.06" version="1.1" viewBox="0 0 642 625.06" xmlns="http://www.w3.org/2000/svg">
<g transform="translate(0 .059783)">
<path d="m0 312.5v-312.5h642v625h-642z" fill="#fdfdfd"/>
<path d="m52 620.57c-7.9849-2.2176-16.282-6.9324-22.639-12.864-7.5134-7.0114-11.68-13.298-15.205-22.941l-2.6562-7.2662v-100.5c0-109.69-0.21568-105.36 5.874-117.98 4.1498-8.6004 14.988-19.687 23.366-23.901 12.452-6.2635 9.1131-6.0892 116.96-6.1055 68.495-0.0103 99.804 0.32282 103.5 1.1012 17.252 3.6334 33.47 17.977 40.051 35.423l2.2484 5.9609 0.30995 101c0.2254 73.449-4e-3 102.5-0.84214 106.5-3.0647 14.631-14.851 30.401-27.468 36.754-13.1 6.5959-6.5701 6.255-117.93 6.1565-77.546-0.0686-102.12-0.38027-105.57-1.3392zm135-74.525c0-1.3329-1.3497-2.5571-4.25-3.8548-2.3375-1.0459-5.15-2.914-6.25-4.1514-1.9537-2.1977-2-3.6664-2-63.395v-61.145l4-0.3296c7.2961-0.60121 14.131 0.79471 17.828 3.6413 4.3666 3.3616 6.5271 6.9206 9.22 15.188l2.1171 6.5h12.835v-35h-125v35h12.818l1.699-6.0249c2.2456-7.9633 4.256-11.686 8.0243-14.856 3.9972-3.3634 6.7609-4.0732 15.959-4.0983l7.5-0.0205 0.25072 60c0.24545 58.74 0.20815 60.07-1.7767 63.318-1.231 2.0146-3.7846 4.0954-6.5007 5.2968-3.0956 1.3693-4.4733 2.5803-4.4733 3.932 0 1.8927 0.89826 1.9532 29 1.9532s29-0.0605 29-1.9532zm193 73.519c-17.325-4.8336-32.294-19.786-37.107-37.066-1.1487-4.124-1.3927-22.957-1.3927-107.5 0-116.54-0.63455-107.65 8.6764-121.57 5.3953-8.0666 8.4228-10.878 17.893-16.616 11.559-7.0033 8.3105-6.8191 119.13-6.7547 90.533 0.0525 99.884 0.20936 105.88 1.7756 17.507 4.5702 32.326 19.71 36.937 37.737 1.9111 7.4724 1.9807 11.257 1.9469 105.84-0.0366 102.16-0.10863 104.08-4.2605 113.83-5.976 14.026-20.322 26.413-35.204 30.398-7.0745 1.8945-205.69 1.8276-212.5-0.0716zm125.5-70.981c11.243-3.1137 18.265-7.124 25.976-14.835 8.6394-8.6404 13.539-17.626 17.275-31.68 2.2884-8.6094 2.5437-11.427 2.5437-28.07 0-16.779-0.24365-19.418-2.6187-28.365-5.8345-21.98-18.309-36.058-37.175-41.952-13.643-4.2627-30.126-4.597-44.044-0.89342-19.839 5.2792-34.292 19.208-41.267 39.772-5.0508 14.891-6.5441 36.547-3.7195 53.939 4.8471 29.845 18.513 46.206 43.998 52.678 8.8806 2.2552 29.899 1.9354 39.032-0.59382zm-26.942-11.013c-12.644-4.7079-19.174-16.702-22.09-40.571-3.1584-25.853-0.64287-55.834 5.7424-68.44 5.8932-11.635 12.051-15.56 24.41-15.56 7.1502 0 8.4827 0.3134 12.698 2.9865 12.535 7.9493 17.866 26.34 17.833 61.513-0.0324 34.143-5.0531 50.67-17.632 58.042-5.4609 3.2003-15.267 4.1498-20.961 2.0297zm-428.06-246.28c-1.65-0.22556-7.1072-2.3912-12.127-4.8126-7.4681-3.6023-10.243-5.6207-15.268-11.105-3.3778-3.6862-7.4734-9.4406-9.1014-12.788-6.2207-12.789-6.0032-8.5805-6.0032-116.16 0-59.725 0.38258-100.17 0.97718-103.31 1.7463-9.208 7.3263-19.593 14.545-27.071 8.6234-8.9323 16.28-13.035 27.478-14.724 12.232-1.8452 194.74-1.8477 207-0.00292 10.146 1.5271 16.909 4.8813 25.111 12.455 6.7757 6.2565 10.801 12.253 14.599 21.748l2.7895 6.974 0.29035 99c0.2056 70.101-0.0389 100.97-0.83769 105.73-3.3639 20.082-19.837 38.114-39.494 43.235-5.1095 1.3308-19.033 1.5116-106.42 1.3814-55.297-0.08241-101.89-0.33438-103.54-0.55994zm170-59.29v-24.5l-18-1v-60.099c0-66.659-0.28025-63.843 6.6652-66.975 3.2819-1.4799 3.8844-2.201 3.6344-4.3497l-0.29961-2.5758h-54v2.4921c0 1.8961 0.89062 2.9115 3.7241 4.2457 7.6734 3.6131 7.2759-0.05896 7.2759 67.217v60.045h-46v-60.1c0-66.771-0.27413-64.032 6.7164-67.116 3.2114-1.4169 3.8247-2.1445 3.5795-4.2471l-0.2959-2.5373h-54l-0.2959 2.5373c-0.24596 2.1091 0.36996 2.8311 3.6493 4.2779 7.3677 3.2506 7.1471 1.2017 7.1429 66.336-0.0036 56.259-0.05921 57.94-2.0219 61.159-1.11 1.8206-3.5833 3.9641-5.4963 4.7634-2.6273 1.0978-3.4781 2.0518-3.4781 3.9003v2.447l111.65 0.57911 4.156 2.7511c2.2858 1.5131 5.0572 4.5177 6.1587 6.6768 2.1712 4.256 5.4841 15.869 6.5817 23.072 0.37716 2.475 0.89854 4.8588 1.1586 5.2973 0.26008 0.4385 3.0207 0.6635 6.1346 0.5l5.6618-0.29727zm157.87 57.976c-13.234-2.6639-28.193-14.726-34.75-28.022-6.7802-13.748-6.7378-12.943-6.3487-120.62 0.26229-72.57 0.64903-96.924 1.593-100.31 4.2092-15.101 15.072-28.447 28.528-35.05 5.3628-2.6316 10.479-4.3106 15.108-4.9584 9.3478-1.3081 191.65-1.3081 201 0 19.799 2.7707 37.73 19.18 43.143 39.481 1.9872 7.4531 1.9564 203.66-0.0332 211.13-3.9123 14.693-15.083 27.851-29.503 34.75l-8.607 4.1181-103 0.15399c-56.65 0.0847-104.86-0.2202-107.13-0.67756zm90.439-73.654c0.28227-2.9126-0.0725-3.3458-4.2541-5.1956-5.1947-2.2978-6.4976-4.6719-7.2045-13.127l-0.45982-5.5 24.61-34c25-34.539 26.254-36.2 26.744-35.433 0.15257 0.23833 0.0476 18.949-0.23333 41.58-0.48679 39.217-0.60358 41.25-2.4904 43.333-1.0888 1.202-3.4806 2.8127-5.3151 3.5792-2.9423 1.2294-3.2983 1.7795-3.0203 4.6674l0.31513 3.2738h55l0.31513-3.2738c0.28195-2.9291-0.0635-3.432-3.2806-4.7762-1.9777-0.82632-4.4803-2.9531-5.5614-4.7262-1.8953-3.1085-1.9641-5.28-1.9242-60.724 0.0306-42.56 0.35443-58.226 1.2463-60.293 0.6627-1.5361 3.0049-3.8005 5.2049-5.0318 3.2654-1.8277 4-2.784 4-5.207v-2.9682h-55v2.9103c0 2.3396 0.75953 3.3355 3.8731 5.0786 4.8571 2.7192 6.5464 5.7245 6.5915 11.727 0.0338 4.4966-0.66838 5.7054-15.103 26-8.3259 11.706-16.796 23.534-18.822 26.284s-6.3115 8.7125-9.5228 13.25c-3.2112 4.5375-6.2403 8.25-6.7313 8.25-0.5136 0-0.76384-16.693-0.58927-39.309 0.3378-43.762 0.0706-42.082 7.3394-46.151 3.2023-1.7928 3.964-2.7784 3.964-5.1295v-2.9103h-56v2.9682c0 2.4122 0.73433 3.3801 3.9206 5.1674 2.1563 1.2096 4.5029 3.2489 5.2146 4.5318 1.0162 1.8319 1.3016 14.915 1.3294 60.948 0.0351 57.99 0.0131 58.643-2.057 61.275-1.1508 1.463-3.6258 3.3008-5.5 4.0838-2.7601 1.1532-3.4076 1.9718-3.4076 4.3082 0 1.5864 0.30697 3.1913 0.68217 3.5665 0.37519 0.37519 13.088 0.56269 28.25 0.41667l27.568-0.2655z" fill="#fc91fd"/>
<path d="m52 620.57c-7.9849-2.2176-16.282-6.9324-22.639-12.864-7.5134-7.0114-11.68-13.298-15.205-22.941l-2.6562-7.2662v-100.5c0-109.69-0.21568-105.36 5.874-117.98 4.1498-8.6004 14.988-19.687 23.366-23.901 12.452-6.2635 9.1131-6.0892 116.96-6.1055 68.495-0.0103 99.804 0.32282 103.5 1.1012 17.252 3.6334 33.47 17.977 40.051 35.423l2.2484 5.9609 0.30995 101c0.2254 73.449-4e-3 102.5-0.84214 106.5-3.0647 14.631-14.851 30.401-27.468 36.754-13.1 6.5959-6.5701 6.255-117.93 6.1565-77.546-0.0686-102.12-0.38027-105.57-1.3392zm135-74.525c0-1.3329-1.3497-2.5571-4.25-3.8548-2.3375-1.0459-5.15-2.914-6.25-4.1514-1.9537-2.1977-2-3.6664-2-63.395v-61.145l4-0.3296c7.2961-0.60121 14.131 0.79471 17.828 3.6413 4.3666 3.3616 6.5271 6.9206 9.22 15.188l2.1171 6.5h12.835v-35h-125v35h12.818l1.699-6.0249c2.2456-7.9633 4.256-11.686 8.0243-14.856 3.9972-3.3634 6.7609-4.0732 15.959-4.0983l7.5-0.0205 0.25072 60c0.24545 58.74 0.20815 60.07-1.7767 63.318-1.231 2.0146-3.7846 4.0954-6.5007 5.2968-3.0956 1.3693-4.4733 2.5803-4.4733 3.932 0 1.8927 0.89826 1.9532 29 1.9532s29-0.0605 29-1.9532zm193 73.519c-17.325-4.8336-32.294-19.786-37.107-37.066-1.1487-4.124-1.3927-22.957-1.3927-107.5 0-116.54-0.63455-107.65 8.6764-121.57 5.3953-8.0666 8.4228-10.878 17.893-16.616 11.559-7.0033 8.3105-6.8191 119.13-6.7547 90.533 0.0525 99.884 0.20936 105.88 1.7756 17.507 4.5702 32.326 19.71 36.937 37.737 1.9111 7.4724 1.9807 11.257 1.9469 105.84-0.0366 102.16-0.10863 104.08-4.2605 113.83-5.976 14.026-20.322 26.413-35.204 30.398-7.0745 1.8945-205.69 1.8276-212.5-0.0716zm125.5-70.981c11.243-3.1137 18.265-7.124 25.976-14.835 8.6394-8.6404 13.539-17.626 17.275-31.68 2.2884-8.6094 2.5437-11.427 2.5437-28.07 0-16.779-0.24365-19.418-2.6187-28.365-5.8345-21.98-18.309-36.058-37.175-41.952-13.643-4.2627-30.126-4.597-44.044-0.89342-19.839 5.2792-34.292 19.208-41.267 39.772-5.0508 14.891-6.5441 36.547-3.7195 53.939 4.8471 29.845 18.513 46.206 43.998 52.678 8.8806 2.2552 29.899 1.9354 39.032-0.59382zm-26.942-11.013c-12.644-4.7079-19.174-16.702-22.09-40.571-3.1584-25.853-0.64287-55.834 5.7424-68.44 5.8932-11.635 12.051-15.56 24.41-15.56 7.1502 0 8.4827 0.3134 12.698 2.9865 12.535 7.9493 17.866 26.34 17.833 61.513-0.0324 34.143-5.0531 50.67-17.632 58.042-5.4609 3.2003-15.267 4.1498-20.961 2.0297zm-428.06-246.28c-1.65-0.22556-7.1072-2.3912-12.127-4.8126-7.4681-3.6023-10.243-5.6207-15.268-11.105-3.3778-3.6862-7.4734-9.4406-9.1014-12.788-6.2207-12.789-6.0032-8.5805-6.0032-116.16 0-59.725 0.38258-100.17 0.97718-103.31 1.7463-9.208 7.3263-19.593 14.545-27.071 8.6234-8.9323 16.28-13.035 27.478-14.724 12.232-1.8452 194.74-1.8477 207-0.00292 10.146 1.5271 16.909 4.8813 25.111 12.455 6.7757 6.2565 10.801 12.253 14.599 21.748l2.7895 6.974 0.29035 99c0.2056 70.101-0.0389 100.97-0.83769 105.73-3.3639 20.082-19.837 38.114-39.494 43.235-5.1095 1.3308-19.033 1.5116-106.42 1.3814-55.297-0.08241-101.89-0.33438-103.54-0.55994zm170-59.29v-24.5l-18-1v-60.099c0-66.659-0.28025-63.843 6.6652-66.975 3.2819-1.4799 3.8844-2.201 3.6344-4.3497l-0.29961-2.5758h-54v2.4921c0 1.8961 0.89062 2.9115 3.7241 4.2457 7.6734 3.6131 7.2759-0.05896 7.2759 67.217v60.045h-46v-60.1c0-66.771-0.27413-64.032 6.7164-67.116 3.2114-1.4169 3.8247-2.1445 3.5795-4.2471l-0.2959-2.5373h-54l-0.2959 2.5373c-0.24596 2.1091 0.36996 2.8311 3.6493 4.2779 7.3677 3.2506 7.1471 1.2017 7.1429 66.336-0.0036 56.259-0.05921 57.94-2.0219 61.159-1.11 1.8206-3.5833 3.9641-5.4963 4.7634-2.6273 1.0978-3.4781 2.0518-3.4781 3.9003v2.447l111.65 0.57911 4.156 2.7511c2.2858 1.5131 5.0572 4.5177 6.1587 6.6768 2.1712 4.256 5.4841 15.869 6.5817 23.072 0.37716 2.475 0.89854 4.8588 1.1586 5.2973 0.26008 0.4385 3.0207 0.6635 6.1346 0.5l5.6618-0.29727z" fill="#e8f5aa"/>
<path d="m52.112 619.42c-17.608-4.7355-33.037-20.191-37.722-37.788-1.1119-4.176-1.3686-23.953-1.3783-106.2-0.01052-89.611 0.16899-101.68 1.5835-106.5 5.5195-18.791 21.681-34 40.204-37.835 8.2196-1.7015 198.74-1.4504 206.7 0.27249 16.926 3.6651 32.388 17.338 38.801 34.312l2.1986 5.819 0.30995 101c0.23056 75.132 6e-3 102.41-0.87557 106.5-4.23 19.624-19.332 35.421-38.65 40.426-5.3362 1.3828-18.187 1.5657-105.93 1.5078-83.9-0.0553-100.72-0.29734-105.24-1.5147zm134.31-70.026c2.229-0.85534 2.0982-6.296-0.16821-6.9974-5.2122-1.6131-8.3249-3.6397-9.7128-6.3236-1.3618-2.6334-1.5214-10.307-1.2952-62.288l0.25794-59.284 4.3022-0.31005c2.3662-0.17053 6.7443 0.19692 9.729 0.81655 7.227 1.5003 11.587 6.4623 14.894 16.951l2.3781 7.5426h14.697v-37h-127v37l6.5926 0.2921c4.5267 0.20057 6.8858-0.1128 7.5283-1 0.51465-0.71065 2.0344-4.6385 3.3772-8.7285 3.1549-9.6097 6.8571-13.477 14.402-15.043 3.0223-0.62744 7.4312-1.0013 9.7974-0.83074l4.3022 0.31005 0.25278 59c0.28898 67.448 0.62028 64.559-7.7528 67.613-3.6714 1.339-4.5608 2.1502-4.8301 4.4057-0.18375 1.5391 0.25953 3.1383 1 3.6078 1.5058 0.95458 54.809 1.203 57.248 0.26683zm193.58 70.173c-17.325-4.8336-32.294-19.786-37.107-37.066-1.1487-4.124-1.3927-22.957-1.3927-107.5 0-116.54-0.63455-107.65 8.6764-121.57 5.3953-8.0666 8.4228-10.878 17.893-16.616 11.559-7.0033 8.3105-6.8191 119.13-6.7547 90.533 0.0525 99.884 0.20936 105.88 1.7756 17.507 4.5702 32.326 19.71 36.937 37.737 1.9111 7.4724 1.9807 11.257 1.9469 105.84-0.0366 102.16-0.10863 104.08-4.2605 113.83-5.976 14.026-20.322 26.413-35.204 30.398-7.0745 1.8945-205.69 1.8276-212.5-0.0716zm125.5-70.981c11.243-3.1137 18.265-7.124 25.976-14.835 8.6394-8.6404 13.539-17.626 17.275-31.68 2.2884-8.6094 2.5437-11.427 2.5437-28.07 0-16.779-0.24365-19.418-2.6187-28.365-5.8345-21.98-18.309-36.058-37.175-41.952-13.643-4.2627-30.126-4.597-44.044-0.89342-19.839 5.2792-34.292 19.208-41.267 39.772-5.0508 14.891-6.5441 36.547-3.7195 53.939 4.8471 29.845 18.513 46.206 43.998 52.678 8.8806 2.2552 29.899 1.9354 39.032-0.59382zm-26.942-11.013c-12.644-4.7079-19.174-16.702-22.09-40.571-3.1584-25.853-0.64287-55.834 5.7424-68.44 5.8932-11.635 12.051-15.56 24.41-15.56 7.1502 0 8.4827 0.3134 12.698 2.9865 12.535 7.9493 17.866 26.34 17.833 61.513-0.0324 34.143-5.0531 50.67-17.632 58.042-5.4609 3.2003-15.267 4.1498-20.961 2.0297zm-429.28-248.11c-17.164-4.623-30.369-16.8-37.175-34.282l-2.6-6.6787-0.3041-99c-0.21583-70.264 0.022239-100.74 0.82019-105 2.8232-15.067 13.773-30.427 26.505-37.18 13.888-7.3662 4.4437-6.8202 117.98-6.8202h102l7.1197 2.7876c3.9158 1.5332 10.216 4.9082 14 7.5 8.4229 5.7689 15.779 16.082 19.435 27.245l2.4454 7.4676v100c0 83.018-0.23943 100.85-1.4099 105-5.421 19.225-20.247 34.18-38.632 38.969-8.4356 2.1972-202.02 2.19-210.18-8e-3zm172.73-57.461v-26h-7.9182c-4.355 0-8.63-0.27314-9.5-0.60699-1.4171-0.54379-1.5816-6.6087-1.5802-58.25 2e-3 -64.763-0.22651-62.674 7.2829-66.643 3.4022-1.798 3.7557-2.3535 3.5-5.5l-0.28443-3.5h-56l-0.30015 3.5786c-0.28005 3.339-0.0346 3.6829 3.6656 5.1364 7.8728 3.0925 7.595 0.79636 7.9375 65.619 0.22638 42.842 6e-3 57.692-0.87244 58.75-1.7205 2.0731-41.133 2.0816-42.853 9e-3 -0.86849-1.0465-1.0921-16.359-0.87244-59.75 0.32803-64.807-0.0763-61.2 7.2306-64.504 3.6285-1.641 4.0647-2.2138 4.0647-5.3382v-3.5h-57l-0.30943 3.7343c-0.29172 3.5206-0.08156 3.8255 3.6724 5.3276 7.2482 2.9001 7.1372 1.886 7.1354 65.208-0.0017 62.667 0.19377 60.926-7.2484 64.562-3.2293 1.5779-3.75 2.3004-3.75 5.2032v3.3708l111.65 0.59368 4.1478 2.7457c2.2813 1.5102 4.8921 4.1851 5.8018 5.9443 2.0222 3.9105 5.0282 14.238 6.4897 22.296 0.59711 3.2922 1.2982 6.3298 1.5579 6.75s3.5957 0.76409 7.4132 0.76409h6.941z" fill="#96fed6"/>
<path d="m52.112 619.42c-17.608-4.7355-33.037-20.191-37.722-37.788-1.1119-4.176-1.3686-23.953-1.3783-106.2-0.01052-89.611 0.16899-101.68 1.5835-106.5 5.5195-18.791 21.681-34 40.204-37.835 8.2196-1.7015 198.74-1.4504 206.7 0.27249 16.926 3.6651 32.388 17.338 38.801 34.312l2.1986 5.819 0.30995 101c0.23056 75.132 6e-3 102.41-0.87557 106.5-4.23 19.624-19.332 35.421-38.65 40.426-5.3362 1.3828-18.187 1.5657-105.93 1.5078-83.9-0.0553-100.72-0.29734-105.24-1.5147zm134.31-70.026c2.229-0.85534 2.0982-6.296-0.16821-6.9974-5.2122-1.6131-8.3249-3.6397-9.7128-6.3236-1.3618-2.6334-1.5214-10.307-1.2952-62.288l0.25794-59.284 4.3022-0.31005c2.3662-0.17053 6.7443 0.19692 9.729 0.81655 7.227 1.5003 11.587 6.4623 14.894 16.951l2.3781 7.5426h14.697v-37h-127v37l6.5926 0.2921c4.5267 0.20057 6.8858-0.1128 7.5283-1 0.51465-0.71065 2.0344-4.6385 3.3772-8.7285 3.1549-9.6097 6.8571-13.477 14.402-15.043 3.0223-0.62744 7.4312-1.0013 9.7974-0.83074l4.3022 0.31005 0.25278 59c0.28898 67.448 0.62028 64.559-7.7528 67.613-3.6714 1.339-4.5608 2.1502-4.8301 4.4057-0.18375 1.5391 0.25953 3.1383 1 3.6078 1.5058 0.95458 54.809 1.203 57.248 0.26683zm195.08 68.739c-9.4326-2.7132-15.396-6.1273-22.726-13.012-4.9153-4.6164-7.762-8.3488-10.297-13.5-6.5768-13.366-6.4425-10.945-6.4425-116.12 0-104.53-0.0936-102.77 6.1296-115.5 3.971-8.124 14.078-18.382 22.336-22.668 12.415-6.4442 10.358-6.3322 116.29-6.3322 92.266 0 96.185 0.0748 103.63 1.9782 19.876 5.0835 33.526 18.899 38.495 38.962 2.0465 8.2629 2.0904 10.432 2.0904 103.18 0 104.39 0.07542 102.97-6.1817 115.87-3.9804 8.207-15.058 19.46-22.818 23.18-12.562 6.0212-8.6331 5.8267-116.14 5.7489-90.032-0.06522-98.863-0.21731-104.36-1.7971zm122.81-67.61c22.826-4.8365 39.239-21.684 45.808-47.021 2.0758-8.0069 2.3333-11.262 2.3333-29.5 0-18.234-0.25781-21.495-2.3322-29.5-7.9288-30.598-28.446-45.5-62.646-45.5-21.098 0-34.909 5.1705-47.455 17.766-13.959 14.014-18.932 28.07-19.758 55.84-0.59243 19.919 1.0306 32.302 5.7927 44.195 7.0817 17.686 20.321 29.183 38.752 33.653 7.7269 1.8738 30.797 1.9136 39.506 0.0682zm-28.005-15.958c-11.29-5.2568-16.982-19.031-19.354-46.843-0.89056-10.441-0.89791-16.916-0.0303-26.728 2.8764-32.532 11.926-47.043 29.292-46.971 10.121 0.0421 17.451 5.5505 22.649 17.019 4.8363 10.673 6.2701 19.323 6.8489 41.322 0.8054 30.611-2.5151 46.506-11.963 57.266-6.6221 7.5422-17.602 9.5165-27.443 4.9347zm-427.04-245.1c-17.164-4.623-30.369-16.8-37.175-34.282l-2.6-6.6787-0.3041-99c-0.21583-70.264 0.022239-100.74 0.82019-105 2.8232-15.067 13.773-30.427 26.505-37.18 13.888-7.3662 4.4437-6.8202 117.98-6.8202h102l7.1197 2.7876c3.9158 1.5332 10.216 4.9082 14 7.5 8.4229 5.7689 15.779 16.082 19.435 27.245l2.4454 7.4676v100c0 83.018-0.23943 100.85-1.4099 105-5.421 19.225-20.247 34.18-38.632 38.969-8.4356 2.1972-202.02 2.19-210.18-8e-3zm172.73-57.461v-26h-7.9182c-4.355 0-8.63-0.27314-9.5-0.60699-1.4171-0.54379-1.5816-6.6087-1.5802-58.25 2e-3 -64.763-0.22651-62.674 7.2829-66.643 3.4022-1.798 3.7557-2.3535 3.5-5.5l-0.28443-3.5h-56l-0.30015 3.5786c-0.28005 3.339-0.0346 3.6829 3.6656 5.1364 7.8728 3.0925 7.595 0.79636 7.9375 65.619 0.22638 42.842 6e-3 57.692-0.87244 58.75-1.7205 2.0731-41.133 2.0816-42.853 9e-3 -0.86849-1.0465-1.0921-16.359-0.87244-59.75 0.32803-64.807-0.0763-61.2 7.2306-64.504 3.6285-1.641 4.0647-2.2138 4.0647-5.3382v-3.5h-57l-0.30943 3.7343c-0.29172 3.5206-0.08156 3.8255 3.6724 5.3276 7.2482 2.9001 7.1372 1.886 7.1354 65.208-0.0017 62.667 0.19377 60.926-7.2484 64.562-3.2293 1.5779-3.75 2.3004-3.75 5.2032v3.3708l111.65 0.59368 4.1478 2.7457c2.2813 1.5102 4.8921 4.1851 5.8018 5.9443 2.0222 3.9105 5.0282 14.238 6.4897 22.296 0.59711 3.2922 1.2982 6.3298 1.5579 6.75s3.5957 0.76409 7.4132 0.76409h6.941z" fill="#74feca"/>
<path d="m52.112 619.42c-17.608-4.7355-33.037-20.191-37.722-37.788-1.1119-4.176-1.3686-23.953-1.3783-106.2-0.01052-89.611 0.16899-101.68 1.5835-106.5 5.5195-18.791 21.681-34 40.204-37.835 8.2196-1.7015 198.74-1.4504 206.7 0.27249 16.926 3.6651 32.388 17.338 38.801 34.312l2.1986 5.819 0.30995 101c0.23056 75.132 6e-3 102.41-0.87557 106.5-4.23 19.624-19.332 35.421-38.65 40.426-5.3362 1.3828-18.187 1.5657-105.93 1.5078-83.9-0.0553-100.72-0.29734-105.24-1.5147zm134.31-70.026c2.229-0.85534 2.0982-6.296-0.16821-6.9974-5.2122-1.6131-8.3249-3.6397-9.7128-6.3236-1.3618-2.6334-1.5214-10.307-1.2952-62.288l0.25794-59.284 4.3022-0.31005c2.3662-0.17053 6.7443 0.19692 9.729 0.81655 7.227 1.5003 11.587 6.4623 14.894 16.951l2.3781 7.5426h14.697v-37h-127v37l6.5926 0.2921c4.5267 0.20057 6.8858-0.1128 7.5283-1 0.51465-0.71065 2.0344-4.6385 3.3772-8.7285 3.1549-9.6097 6.8571-13.477 14.402-15.043 3.0223-0.62744 7.4312-1.0013 9.7974-0.83074l4.3022 0.31005 0.25278 59c0.28898 67.448 0.62028 64.559-7.7528 67.613-3.6714 1.339-4.5608 2.1502-4.8301 4.4057-0.18375 1.5391 0.25953 3.1383 1 3.6078 1.5058 0.95458 54.809 1.203 57.248 0.26683zm-137.14-259.93c-17.164-4.623-30.369-16.8-37.175-34.282l-2.6-6.6787-0.3041-99c-0.21583-70.264 0.022239-100.74 0.82019-105 2.8232-15.067 13.773-30.427 26.505-37.18 13.888-7.3662 4.4437-6.8202 117.98-6.8202h102l7.1197 2.7876c3.9158 1.5332 10.216 4.9082 14 7.5 8.4229 5.7689 15.779 16.082 19.435 27.245l2.4454 7.4676v100c0 83.018-0.23943 100.85-1.4099 105-5.421 19.225-20.247 34.18-38.632 38.969-8.4356 2.1972-202.02 2.19-210.18-8e-3zm172.73-57.461v-26h-7.9182c-4.355 0-8.63-0.27314-9.5-0.60699-1.4171-0.54379-1.5816-6.6087-1.5802-58.25 2e-3 -64.763-0.22651-62.674 7.2829-66.643 3.4022-1.798 3.7557-2.3535 3.5-5.5l-0.28443-3.5h-56l-0.30015 3.5786c-0.28005 3.339-0.0346 3.6829 3.6656 5.1364 7.8728 3.0925 7.595 0.79636 7.9375 65.619 0.22638 42.842 6e-3 57.692-0.87244 58.75-1.7205 2.0731-41.133 2.0816-42.853 9e-3 -0.86849-1.0465-1.0921-16.359-0.87244-59.75 0.32803-64.807-0.0763-61.2 7.2306-64.504 3.6285-1.641 4.0647-2.2138 4.0647-5.3382v-3.5h-57l-0.30943 3.7343c-0.29172 3.5206-0.08156 3.8255 3.6724 5.3276 7.2482 2.9001 7.1372 1.886 7.1354 65.208-0.0017 62.667 0.19377 60.926-7.2484 64.562-3.2293 1.5779-3.75 2.3004-3.75 5.2032v3.3708l111.65 0.59368 4.1478 2.7457c2.2813 1.5102 4.8921 4.1851 5.8018 5.9443 2.0222 3.9105 5.0282 14.238 6.4897 22.296 0.59711 3.2922 1.2982 6.3298 1.5579 6.75s3.5957 0.76409 7.4132 0.76409h6.941z" fill="#f3e065"/>
<path d="m53 618.57c-13.373-3.714-27.848-15.291-33.386-26.702-5.7892-11.93-5.5895-7.778-5.6024-116.51-0.01154-97.385 0.04332-100.32 1.991-106.63 1.1016-3.5665 3.2158-8.6764 4.6984-11.355 3.9094-7.0644 13.829-16.6 21.072-20.257 12.384-6.2514 9.1867-6.0832 115.93-6.0995 67.759-0.0103 98.806 0.32326 102.5 1.1012 17.103 3.6019 32.567 17.233 39.051 34.423l2.2484 5.9609 0.31004 100c0.2254 72.699-5e-3 101.5-0.84213 105.5-3.0468 14.544-14.178 29.551-26.548 35.79-12.81 6.4612-8.1501 6.2187-117.56 6.1202-76.176-0.06855-100.41-0.38098-103.86-1.3392zm135.5-72.414c0-4.1541-0.16999-4.4014-3.9091-5.6868-2.15-0.73913-4.85-2.2846-6-3.4345-2.0746-2.0742-2.0909-2.5581-2.0909-61.813v-59.723l3.2767-0.31535c1.8022-0.17344 5.7107 0.18994 8.6856 0.80753 7.4192 1.5402 11.566 6.1935 14.876 16.691l2.4645 7.8168h16.697v-39h-129v39l7.595 0.28927c5.3244 0.2028 7.8801-0.0962 8.5487-1 0.52454-0.7091 2.004-4.6564 3.2876-8.7718 3.0246-9.6968 6.5176-13.346 14.326-14.967 3.1289-0.64956 7.1635-1.0391 8.9657-0.86567l3.2767 0.31535 0.25285 58c0.28914 66.324 0.61054 63.563-7.7528 66.613-3.9192 1.4294-4.5414 2.0566-4.8205 4.8594-0.63403 6.3672-2.1584 6.0828 31.045 5.7925l30.276-0.2647zm-139.87-257.26c-6.8703-1.6335-17.606-8.04-23.722-14.155-6.6079-6.6079-12.26-17.069-13.903-25.732-0.62774-3.3101-1.0027-42.177-1.0027-103.94 0-109.38-0.30638-103.99 6.6594-117.24 4.7602-9.0587 13.378-17.037 23.317-21.586 4.138-1.894 8.6043-3.961 9.925-4.5932 3.393-1.6242 205.74-1.6458 209.2-0.02232 16.84 7.9047 18.742 9.0532 24.494 14.793 6.9962 6.9818 12.623 17.588 14.332 27.013 1.3996 7.7201 1.484 195.5 0.0918 204-2.5449 15.541-13.92 30.444-28.904 37.87l-8.4603 4.1926-104.08 0.1609c-60.564 0.09363-105.7-0.22403-107.95-0.75981zm173.17-31.101c1.7064-1.7064 1.7064-49.894 0-51.6-0.74056-0.74056-4.3778-1.2-9.5-1.2h-8.3v-58.435c0-34.901 0.38651-59.452 0.95971-60.959 0.53679-1.4119 2.7616-3.4435 5.0487-4.6103 4.5716-2.3323 5.4968-3.8467 4.5804-7.4979l-0.62689-2.4978h-56.924l-0.62689 2.4978c-0.89472 3.5648 0.0371 5.2424 3.7953 6.8326 1.8114 0.76647 4.1935 2.4026 5.2935 3.6358 1.9451 2.1806 2.0081 3.8735 2.2944 61.638l0.29442 59.396h-43.163l0.28721-59.965c0.31943-66.693-0.17436-62.179 7.0694-64.619 2.8531-0.96079 3.2527-1.5574 3.526-5.2652l0.30824-4.1816-58.616 0.53039v3.4914c0 3.0609 0.49318 3.7471 4 5.5655 2.2 1.1408 4.5559 3.1697 5.2353 4.5086 0.93777 1.8482 1.2388 16.445 1.25 60.608l0.014742 58.173-2.4971 2.9676c-1.3734 1.6322-3.6165 3.2485-4.9848 3.592-2.8254 0.70913-4.4132 4.9508-2.8071 7.4987 0.89474 1.4193 7.1687 1.6504 56.897 2.0952 41.549 0.3717 56.441 0.81498 58.034 1.7275 5.8903 3.3752 10.06 12.53 12.536 27.523 0.62942 3.8112 1.7789 7.564 2.5544 8.3396 1.7543 1.7543 12.364 1.9127 14.067 0.21002z" fill="#f6cf1e"/>
<path d="m48.628 288.9c-6.8703-1.6335-17.606-8.04-23.722-14.155-6.6079-6.6079-12.26-17.069-13.903-25.732-0.62774-3.3101-1.0027-42.177-1.0027-103.94 0-109.38-0.30638-103.99 6.6594-117.24 4.7602-9.0587 13.378-17.037 23.317-21.586 4.138-1.894 8.6043-3.961 9.925-4.5932 3.393-1.6242 205.74-1.6458 209.2-0.02232 16.84 7.9047 18.742 9.0532 24.494 14.793 6.9962 6.9818 12.623 17.588 14.332 27.013 1.3996 7.7201 1.484 195.5 0.0918 204-2.5449 15.541-13.92 30.444-28.904 37.87l-8.4603 4.1926-104.08 0.1609c-60.564 0.09363-105.7-0.22403-107.95-0.75981zm173.17-31.101c1.7064-1.7064 1.7064-49.894 0-51.6-0.74056-0.74056-4.3778-1.2-9.5-1.2h-8.3v-58.435c0-34.901 0.38651-59.452 0.95971-60.959 0.53679-1.4119 2.7616-3.4435 5.0487-4.6103 4.5716-2.3323 5.4968-3.8467 4.5804-7.4979l-0.62689-2.4978h-56.924l-0.62689 2.4978c-0.89472 3.5648 0.0371 5.2424 3.7953 6.8326 1.8114 0.76647 4.1935 2.4026 5.2935 3.6358 1.9451 2.1806 2.0081 3.8735 2.2944 61.638l0.29442 59.396h-43.163l0.28721-59.965c0.31943-66.693-0.17436-62.179 7.0694-64.619 2.8531-0.96079 3.2527-1.5574 3.526-5.2652l0.30824-4.1816-58.616 0.53039v3.4914c0 3.0609 0.49318 3.7471 4 5.5655 2.2 1.1408 4.5559 3.1697 5.2353 4.5086 0.93777 1.8482 1.2388 16.445 1.25 60.608l0.014742 58.173-2.4971 2.9676c-1.3734 1.6322-3.6165 3.2485-4.9848 3.592-2.8254 0.70913-4.4132 4.9508-2.8071 7.4987 0.89474 1.4193 7.1687 1.6504 56.897 2.0952 41.549 0.3717 56.441 0.81498 58.034 1.7275 5.8903 3.3752 10.06 12.53 12.536 27.523 0.62942 3.8112 1.7789 7.564 2.5544 8.3396 1.7543 1.7543 12.364 1.9127 14.067 0.21002z" fill="#96fe21"/>
</g>
</svg>
