<svg id="Слой_1" data-name="Слой 1" xmlns="http://www.w3.org/2000/svg" viewBox="0 0 105.17 115.43"><defs><style>.cls-1{fill:#fff;stroke:#c3797d;stroke-width:5px;}.cls-1,.cls-6{stroke-miterlimit:10;}.cls-2,.cls-6{fill:#0593a1;}.cls-3{fill:#e96b57;}.cls-4{fill:#fdb857;}.cls-5{fill:#1d1d1b;}.cls-6{stroke:#000;stroke-width:0.5px;}</style></defs><title>ракета</title><path class="cls-1" d="M94.2,23.91,61.05,4.77a16.9,16.9,0,0,0-16.93,0L11,23.91A16.92,16.92,0,0,0,2.5,38.58V76.85A17,17,0,0,0,11,91.52l33.15,19.14a17,17,0,0,0,16.93,0L94.2,91.52a17,17,0,0,0,8.47-14.67V38.58A16.92,16.92,0,0,0,94.2,23.91Z"/><polygon class="cls-2" points="73.1 71.36 73.1 86.83 61.33 86.83 61.33 71.36 61.75 71.36 72.71 71.36 73.1 71.36"/><path class="cls-3" d="M59.64,43.36c.89,0,2.66,3.63,2.66,8.32S60.52,60,59.63,60s-.93-4.69-.94-6.46c0-.6,0-1.23,0-1.87v-.63c0-3.25.06-7.6.92-7.7Z"/><path class="cls-4" d="M57.43,53.8v1.05H55.29c0-.34.05-.69.07-1.05Z"/><path class="cls-3" d="M55.72,57.46c1.07,1.06,1.62,3,1.62,5.75,0,4.45-3.25,10.14-4.12,11.58-.87-1.44-4.12-7.13-4.12-11.58q0-4.16,1.62-5.75a7.2,7.2,0,0,0-.7,3.47c0,3.57,2.87,8.07,3,8.26l.21.32.21-.32c.12-.19,3-4.69,3-8.26A7.21,7.21,0,0,0,55.72,57.46Z"/><path class="cls-3" d="M56.4,19.58l.13.22c-.34,0-.68.07-1,.09l-.51,0a30,30,0,0,1-3.55,0l-.54,0-1-.09s0,0,0,0l3.3-5.3Z"/><path class="cls-4" d="M55,57.25a5.61,5.61,0,0,1,.95,3.68c0,2.87-2,6.52-2.69,7.64-.67-1.12-2.7-4.77-2.7-7.64a5.58,5.58,0,0,1,1-3.68.5.5,0,0,1,0,.12,5,5,0,0,0-.22,1.55c0,2.08,1.66,4.67,1.73,4.78l.21.33.21-.33c.07-.11,1.72-2.7,1.72-4.78a4.73,4.73,0,0,0-.22-1.54Z"/><path class="cls-3" d="M54.92,51.68c0,.61,0,1.23,0,1.86s-.07,1.05-.12,1.54-.11,1-.18,1.41l0,.23c0,.21-.08.42-.12.61C54,59.45,53.47,60,53.22,60a.34.34,0,0,1-.23-.12,5.27,5.27,0,0,1-1-2.57h0c0-.15-.06-.31-.09-.49h0l-.06-.35c-.07-.45-.13-.91-.17-1.38s-.09-1-.12-1.54-.05-1.25-.05-1.86c0-5.16,1-8.33,1.71-8.33S54.92,46.52,54.92,51.68Z"/><path class="cls-4" d="M51.08,53.8c0,.36,0,.71.07,1.05H49V53.8Z"/><path class="cls-3" d="M47.76,51.68c0,.64,0,1.27,0,1.87,0,1.77,0,6.46-.94,6.46s-2.67-3.6-2.67-8.33,1.77-8.29,2.67-8.33S47.76,48.37,47.76,51.68Z"/><polygon class="cls-2" points="45 71.36 45 86.83 33.23 86.83 33.23 71.36 33.62 71.36 44.57 71.36 45 71.36"/><path class="cls-5" d="M73.1,71.36H61.33V86.83H73.1Zm-.34-30.83L73.47,42a.23.23,0,0,1,0,.28,1.33,1.33,0,0,0-.25,1.55l2.2,4.65a.16.16,0,0,1,0,.12l-.09,1.78,1.8-4.22-.66-6.66a2.19,2.19,0,0,1,0-.51c0-.06,0-.11,0-.16a1.73,1.73,0,0,1,.11-.32l.09-.17a2.4,2.4,0,0,1,.18-.26L77,38l.1-.11a1.84,1.84,0,0,0-1.63-.45,1.56,1.56,0,0,0-1.16,1,.25.25,0,0,1-.23.17h0a1.7,1.7,0,0,0-.57.1,1.41,1.41,0,0,0-.82.78A1.34,1.34,0,0,0,72.76,40.53ZM72.09,66.7H62v4.16H72.46V66.7ZM65,59.64l1.68-2.32a2.8,2.8,0,0,0,.42-.87l1.74-6.24a2,2,0,0,1,2-1.47,2.38,2.38,0,0,1,.65.1,2.19,2.19,0,0,1,1.6,2.61l-.88,3.24,2.33-2.45.28-1.31.11-2.26-2.17-4.59a1.83,1.83,0,0,1,.23-2l-.64-1.36a1.83,1.83,0,0,1,1-2.53,2,2,0,0,1,.62-.14,2,2,0,0,1,1.41-1.14,2.7,2.7,0,0,1,.54-.06,2.36,2.36,0,0,1,1.67.73,2,2,0,0,1,.87-.24h.13a2.27,2.27,0,0,1,2.27,2c.59,8.08.59,8.08.55,8.16s-1.11,5.26-1.62,6.86a6.21,6.21,0,0,1-.32.75l-.18.38a37.84,37.84,0,0,1-6.09,9.75l-.62,1h.16a.25.25,0,0,1,.25.25v4.41h.39a.25.25,0,0,1,.25.25v16a.25.25,0,0,1-.25.25H61.08a.25.25,0,0,1-.25-.25v-16a.25.25,0,0,1,.25-.25h.42V66.45a.26.26,0,0,1,.25-.25h1l.85-3.53A8.7,8.7,0,0,1,65,59.64Zm2.09-2-1.68,2.32a8.18,8.18,0,0,0-1.31,2.86l-.83,3.41H72l.82-1.27a38.47,38.47,0,0,0,6-9.64l.18-.4a5.72,5.72,0,0,0,.29-.68c.5-1.58,1.62-6.81,1.63-6.87s-.38-5.26-.58-8a1.75,1.75,0,0,0-1.77-1.52h-.07a1.7,1.7,0,0,0-.85.25,1.45,1.45,0,0,0-.7,1.38l.66,6.73a.25.25,0,0,1,0,.12L75,52.43l0,.07-3.09,3.26a.26.26,0,0,1-.31,0,.24.24,0,0,1-.12-.28l1.15-4.2a1.68,1.68,0,0,0-1.22-2,2,2,0,0,0-.55-.09,1.55,1.55,0,0,0-1.53,1.11l-1.74,6.24A3.21,3.21,0,0,1,67,57.61Z"/><path class="cls-5" d="M58.69,53.55c0,1.77.05,6.46.94,6.46s2.67-3.6,2.67-8.33-1.77-8.3-2.66-8.32h0c-.86.1-.92,4.45-.92,7.7v.63C58.68,52.32,58.68,53,58.69,53.55Zm-3.33.25c0,.36,0,.71-.07,1.05h2.14V53.8Zm-2.84,6.32-.06-.07a1.84,1.84,0,0,1-.2-.31v0a2.22,2.22,0,0,1-.18-.38.5.5,0,0,1,0-.13c-.05-.11-.09-.23-.14-.36s0-.1,0-.15,0-.09-.05-.13,0,.23,0,.35a9.77,9.77,0,0,0,1.44,4.16,9.91,9.91,0,0,0,1.43-4.16c0-.12,0-.23,0-.34a.49.49,0,0,1,0,.11.84.84,0,0,1-.05.17,2.84,2.84,0,0,1-.13.35.78.78,0,0,1-.05.14c-.06.12-.11.24-.17.35s0,0,0,0a2.79,2.79,0,0,1-.2.31l-.06.07-.16.16-.07.06a.65.65,0,0,1-.16.09l-.07,0a.74.74,0,0,1-.48,0l-.07,0a.65.65,0,0,1-.16-.09l-.08-.06Zm-.84-5c0,.47.1.93.17,1.38l.06.35h0c0,.18.06.34.09.49h0a5.27,5.27,0,0,0,1,2.57.34.34,0,0,0,.23.12c.25,0,.78-.56,1.21-2.68,0-.19.08-.4.12-.61l0-.23c.07-.46.14-.93.18-1.41s.09-1,.12-1.54,0-1.25,0-1.86c0-5.16-1-8.33-1.7-8.33s-1.71,3.17-1.71,8.33c0,.61,0,1.24.05,1.86S51.63,54.59,51.68,55.08Zm-.2,2.17a5.58,5.58,0,0,0-1,3.68c0,2.87,2,6.52,2.7,7.64.67-1.12,2.69-4.77,2.69-7.64A5.61,5.61,0,0,0,55,57.25l0,.13a4.73,4.73,0,0,1,.22,1.54c0,2.08-1.65,4.67-1.72,4.78l-.21.33L53,63.7c-.07-.11-1.73-2.7-1.73-4.78a5,5,0,0,1,.22-1.55A.5.5,0,0,0,51.48,57.25Zm1.74-42.78-3.3,5.3s0,0,0,0l1,.09.54,0a30,30,0,0,0,3.55,0l.51,0c.34,0,.68-.06,1-.09l-.13-.22ZM49,54.85h2.15c0-.34,0-.69-.07-1.05H49Zm1.72,2.61q-1.62,1.59-1.62,5.75c0,4.45,3.25,10.14,4.12,11.58.87-1.44,4.12-7.13,4.12-11.58,0-2.77-.55-4.69-1.62-5.75a7.21,7.21,0,0,1,.69,3.47c0,3.57-2.86,8.07-3,8.26l-.21.32L53,69.19c-.12-.19-3-4.69-3-8.26A7.2,7.2,0,0,1,50.72,57.46ZM47,42.89c.68.21,1,1.48,1.12,3.56,0,0,0,0,0,0,0,.2,0,.42,0,.64a.34.34,0,0,0,0,.1c0,.21,0,.41,0,.63V48c0,.2,0,.41,0,.62v.23c0,.2,0,.4,0,.61v.28c0,.19,0,.39,0,.59v1.31c0,.56,0,1.1,0,1.62h2.8c0-.54,0-1.08,0-1.62,0-4.39.76-8.83,2.21-8.83s2.2,4.44,2.2,8.83q0,.8,0,1.62h2.8c0-.52,0-1.06,0-1.62V50.42c0-.22,0-.43,0-.63v-.34c0-.18,0-.37,0-.54v-.33c0-.17,0-.34,0-.5s0-.21,0-.31,0-.31,0-.46,0-.2,0-.3l0-.42c0-.09,0-.18,0-.28s0-.25,0-.37l0-.27,0-.33,0-.24c0-.1,0-.2.05-.3a1.55,1.55,0,0,1,0-.21,2.56,2.56,0,0,1,0-.27c0-.06,0-.12.05-.18l.06-.23a1,1,0,0,0,.05-.16c0-.07,0-.13.08-.19l.06-.13.09-.15a.61.61,0,0,0,.07-.1l.11-.11.07-.07.15-.08.06,0,.31-11.29a21.58,21.58,0,0,0-2.89-11.32l-1.07.09c-.23,0-.46.05-.69.06-.44,0-.87,0-1.31,0l-.53,0-.56,0c-.43,0-.85,0-1.28,0-.24,0-.47,0-.71-.06s-.7-.05-1-.09A21.5,21.5,0,0,0,46.72,31.6Zm-.22.46c-.9,0-2.67,3.66-2.67,8.33S45.92,60,46.81,60s.93-4.69.94-6.46c0-.6,0-1.23,0-1.87C47.76,48.37,47.76,43.35,46.81,43.35Zm-3.17,8.33c0-4.42,1.53-8.3,2.89-8.77l-.31-11.3c0-.18,0-.36,0-.54A22.1,22.1,0,0,1,49.1,20.21l.16-.3,0,0,.08-.14.14-.23.11-.19,3.61-5.8,3.85,6.22h0l.09.14a.2.2,0,0,0,0,.08l.15.25h0a22,22,0,0,1,2.87,11.4l-.31,11.3c1.37.47,2.9,4.34,2.9,8.77,0,4.67-1.77,8.83-3.17,8.83-1.14,0-1.4-2.36-1.44-6.71h-.26v1.55h-2.7c0,.37-.08.73-.14,1.09,1.82.89,2.75,3.15,2.75,6.77,0,5.26-4.23,11.91-4.41,12.19l-.21.33L53,75.4c-.18-.28-4.41-6.93-4.41-12.19,0-3.62.93-5.89,2.75-6.78-.06-.35-.1-.71-.14-1.08H48.5V53.8h-.25c0,4.35-.3,6.71-1.44,6.71C45.41,60.51,43.64,56.35,43.64,51.68Z"/><path class="cls-5" d="M29.43,38.12a1.51,1.51,0,0,1,.18.26l.1.17a3,3,0,0,1,.11.32c0,.05,0,.1,0,.16a1.75,1.75,0,0,1,0,.51l-.65,6.66L31,50.43l-.1-1.79a.21.21,0,0,1,0-.12l2.2-4.65a1.35,1.35,0,0,0-.26-1.55.26.26,0,0,1,0-.28l.72-1.51a1.34,1.34,0,0,0-.74-1.85,1.63,1.63,0,0,0-.59-.12.28.28,0,0,1-.26-.17,1.52,1.52,0,0,0-1.12-1,1.65,1.65,0,0,0-.42-.05,1.83,1.83,0,0,0-1.24.49.52.52,0,0,0,.1.11ZM26,39.39c-.19,2.66-.56,7.72-.57,8,.16.74,1.16,5.35,1.62,6.82a5.72,5.72,0,0,0,.29.68c.07.13.13.26.19.4a38.47,38.47,0,0,0,6,9.61l.85,1.3H43.1l-.82-3.41A8,8,0,0,0,41,59.93l-1.67-2.32a3.23,3.23,0,0,1-.5-1l-1.74-6.24a1.54,1.54,0,0,0-1.52-1.11,1.82,1.82,0,0,0-.52.08,1.69,1.69,0,0,0-1.26,2l1.15,4.2a.25.25,0,0,1-.11.28.25.25,0,0,1-.31,0l-3.07-3.23,0,0s0,0-.06-.07l-2.59-6.09a.25.25,0,0,1,0-.12l.66-6.73a1.43,1.43,0,0,0-.69-1.38,1.67,1.67,0,0,0-.81-.25h-.11A1.77,1.77,0,0,0,26,39.39Zm19,32H33.23V86.83H45Zm-.68-4.66H33.87v4.16H44.32Zm-.7-.5h1a.25.25,0,0,1,.25.25v4.41h.43a.25.25,0,0,1,.25.25v16a.25.25,0,0,1-.25.25H33a.25.25,0,0,1-.25-.25v-16a.25.25,0,0,1,.25-.25h.39V66.45a.25.25,0,0,1,.25-.25h.15l-.64-1a37.75,37.75,0,0,1-6.07-9.71l-.18-.39a4.73,4.73,0,0,1-.31-.74c-.51-1.6-1.6-6.7-1.65-6.91,0,0,0,0,.58-8.1a2.26,2.26,0,0,1,2.27-2h.09a2.08,2.08,0,0,1,.91.24,2.35,2.35,0,0,1,2.17-.67,2.05,2.05,0,0,1,1.45,1.14,2,2,0,0,1,.59.13,1.83,1.83,0,0,1,1,2.54l-.64,1.36a1.85,1.85,0,0,1,.23,2l-2.18,4.59.13,2.3.27,1.27,2.33,2.45-.89-3.24a2.18,2.18,0,0,1,1.57-2.6,2.53,2.53,0,0,1,.69-.11,2,2,0,0,1,2,1.47l1.74,6.24a2.57,2.57,0,0,0,.41.87l1.68,2.32a8.73,8.73,0,0,1,1.4,3Z"/><circle class="cls-6" cx="53.16" cy="28.71" r="4"/></svg>